<?xml version="1.0" standalone="no"?>
<!DOCTYPE svg PUBLIC "-//W3C//DTD SVG 20010904//EN"
 "http://www.w3.org/TR/2001/REC-SVG-20010904/DTD/svg10.dtd">
<svg version="1.0" xmlns="http://www.w3.org/2000/svg"
 width="601.000000pt" height="487.000000pt" viewBox="0 0 601.000000 487.000000"
 preserveAspectRatio="xMidYMid meet">

<g transform="translate(0.000000,487.000000) scale(0.100000,-0.100000)"
fill="#000000" stroke="none">
<path d="M2925 4767 c-158 -245 -258 -503 -273 -705 l-7 -87 -445 -2 c-440 -3
-445 -3 -462 -24 -17 -19 -18 -56 -18 -441 l0 -420 33 6 c74 15 112 18 102 9
-5 -5 -38 -33 -72 -62 l-63 -53 0 -264 0 -264 1125 0 1125 0 0 -343 c0 -320 1
-345 18 -360 17 -15 63 -17 451 -17 279 0 439 4 452 10 18 10 19 28 19 594 0
530 -2 585 -17 597 -13 11 -82 15 -330 17 l-313 3 0 259 c0 143 -2 260 -4 260
-2 0 -25 -9 -50 -20 l-46 -19 0 -148 0 -148 -56 -29 c-51 -27 -124 -101 -136
-138 -3 -9 -12 -9 -39 2 -85 36 -209 7 -278 -64 l-33 -35 -27 25 c-68 63 -191
72 -277 18 l-47 -29 -33 33 c-25 25 -41 32 -71 32 -21 0 -48 8 -60 18 -21 16
-22 22 -16 85 6 68 6 68 45 84 42 17 43 20 27 107 l-12 61 42 59 c22 32 54 93
70 136 34 88 71 256 71 324 l0 46 210 0 210 0 15 36 c8 20 15 40 15 45 0 5
-98 9 -219 9 l-218 0 -8 82 c-13 156 -71 339 -164 520 -49 96 -156 274 -169
282 -4 2 -34 -37 -67 -87z m122 -420 c92 -52 93 -190 2 -239 -45 -24 -83 -23
-131 4 -66 38 -87 108 -50 176 33 63 120 92 179 59z m-389 -559 c22 -175 74
-327 145 -427 l33 -46 -13 -69 c-14 -78 -9 -91 36 -101 27 -6 29 -10 35 -77 6
-68 5 -73 -20 -99 -24 -25 -30 -27 -83 -22 -51 5 -60 3 -88 -21 -32 -27 -33
-27 -78 -12 -52 18 -112 20 -150 6 -23 -9 -31 -6 -58 21 -70 71 -206 101 -291
65 -33 -14 -35 -13 -66 19 -43 44 -116 83 -181 95 -29 6 -54 11 -55 13 -1 1
-4 170 -6 375 l-3 372 415 0 416 0 12 -92z m1502 -818 c0 -5 -12 -10 -27 -10
-22 0 -25 2 -13 10 20 13 40 13 40 0z m-2186 -44 c28 -14 66 -41 85 -60 33
-34 33 -34 73 -20 90 32 196 9 272 -57 44 -39 46 -40 88 -29 48 13 106 7 151
-16 27 -15 31 -15 39 0 20 36 111 60 146 37 9 -5 24 3 46 25 58 58 145 64 209
14 14 -11 39 -20 57 -20 38 0 84 -22 104 -51 l15 -22 31 26 c75 64 197 62 281
-4 l36 -28 29 30 c16 16 52 41 81 55 54 27 74 28 231 11 22 -2 22 -4 22 -135
l0 -132 -1077 2 -1078 3 -3 204 -2 204 56 -6 c31 -3 79 -17 108 -31z m2516
-21 c0 -13 -12 -15 -72 -13 -46 2 -73 7 -76 16 -3 9 16 12 72 12 62 0 76 -3
76 -15z m50 0 c0 -8 -4 -15 -9 -15 -13 0 -22 16 -14 24 11 11 23 6 23 -9z
m280 -550 l0 -495 -380 0 -380 0 0 495 0 495 380 0 380 0 0 -495z m-342 -557
c3 -37 3 -38 -32 -38 -35 0 -36 1 -36 41 0 39 1 40 33 37 29 -3 32 -6 35 -40z"/>
<path d="M2446 3694 c-14 -14 -16 -52 -14 -301 3 -260 5 -287 21 -297 12 -8
22 -8 35 0 15 10 17 37 20 297 2 249 0 287 -14 301 -8 9 -19 16 -24 16 -5 0
-16 -7 -24 -16z"/>
<path d="M4334 2576 c-65 -30 -72 -42 -44 -71 l22 -23 45 24 c56 30 111 31
164 3 l41 -20 24 22 c29 27 20 43 -41 70 -58 27 -147 25 -211 -5z"/>
<path d="M4200 4602 c-21 -10 -22 -28 -1 -29 10 -1 17 6 17 18 0 10 0 19 -1
18 0 0 -7 -3 -15 -7z"/>
<path d="M4081 4483 c11 -18 11 -25 1 -35 -20 -20 -13 -32 8 -13 19 17 21 17
43 -1 l22 -19 -19 23 c-18 21 -18 23 -1 42 10 11 13 20 8 20 -6 0 -16 -7 -23
-15 -11 -14 -15 -14 -33 2 -19 18 -20 17 -6 -4z"/>
<path d="M2200 4285 l0 -145 143 1 c78 1 132 4 120 6 -21 4 -23 10 -23 74 l0
69 -100 0 -100 0 0 -70 c0 -56 -3 -70 -15 -70 -13 0 -15 22 -15 134 l0 135 95
0 95 1 0 -46 0 -46 -60 4 c-33 1 -60 -1 -60 -5 0 -4 28 -7 63 -5 l62 3 3 49 3
49 37 -34 37 -34 -34 38 -35 37 -108 0 -108 0 0 -145z m230 -70 l0 -65 -90 0
-90 0 0 65 0 65 90 0 90 0 0 -65z"/>
<path d="M2362 4378 c4 -46 28 -49 28 -4 0 26 -4 36 -16 36 -11 0 -14 -8 -12
-32z m15 -15 c-3 -10 -5 -4 -5 12 0 17 2 24 5 18 2 -7 2 -21 0 -30z"/>
<path d="M4780 4340 c0 -5 23 -10 50 -10 28 0 50 5 50 10 0 6 -22 10 -50 10
-27 0 -50 -4 -50 -10z"/>
<path d="M1220 4210 c0 -5 25 -10 55 -10 30 0 55 5 55 10 0 6 -25 10 -55 10
-30 0 -55 -4 -55 -10z"/>
<path d="M1350 4210 c0 -5 5 -10 11 -10 5 0 7 5 4 10 -3 6 -8 10 -11 10 -2 0
-4 -4 -4 -10z"/>
<path d="M2450 4170 c0 -5 7 -10 15 -10 8 0 15 5 15 10 0 6 -7 10 -15 10 -8 0
-15 -4 -15 -10z"/>
<path d="M1942 4104 c17 -17 17 -19 1 -38 -17 -20 -17 -20 2 -4 18 17 20 17
38 0 19 -16 19 -16 7 5 -12 18 -12 24 1 40 13 17 13 17 -4 4 -16 -12 -22 -13
-40 -2 -21 13 -21 12 -5 -5z"/>
<path d="M4038 3895 c-34 -19 -58 -63 -58 -106 0 -22 10 -41 35 -66 33 -33 39
-35 81 -30 67 7 99 42 99 107 0 40 -5 55 -26 76 -32 32 -93 41 -131 19z"/>
<path d="M4600 3800 c0 -89 0 -90 25 -90 25 0 25 1 25 90 0 89 0 90 -25 90
-25 0 -25 -1 -25 -90z"/>
<path d="M3476 3688 c-14 -19 -16 -64 -16 -291 0 -166 4 -276 10 -288 13 -23
55 -25 64 -3 3 9 6 143 6 299 0 271 -1 285 -19 295 -26 14 -28 13 -45 -12z"/>
<path d="M680 3390 c0 -27 -4 -50 -10 -50 -6 0 -9 -41 -8 -107 l2 -108 3 102
4 101 77 7 c124 10 133 13 34 12 l-92 -2 0 43 0 42 75 0 c73 0 75 -1 75 -25 0
-23 -4 -24 -62 -28 -43 -3 -34 -4 25 -3 l87 1 0 -32 c0 -18 4 -33 10 -33 5 0
11 -42 13 -92 l3 -93 2 103 c1 63 -2 102 -8 102 -5 0 -10 15 -10 33 0 22 -8
41 -23 55 -20 19 -35 22 -110 22 l-87 0 0 -50z m190 15 c10 -12 10 -15 -4 -15
-9 0 -16 7 -16 15 0 8 2 15 4 15 2 0 9 -7 16 -15z"/>
<path d="M1280 3370 c0 -11 7 -20 15 -20 8 0 15 9 15 20 0 11 -7 20 -15 20 -8
0 -15 -9 -15 -20z"/>
<path d="M745 3320 c3 -5 33 -10 66 -10 33 0 59 4 59 10 0 6 -29 10 -66 10
-41 0 -63 -4 -59 -10z"/>
<path d="M5636 3169 c6 -8 42 -54 79 -104 38 -49 72 -94 76 -98 3 -5 20 -2 36
6 26 14 31 14 53 -3 28 -21 40 -18 40 13 -1 21 -2 21 -14 4 -12 -15 -15 -15
-26 -2 -11 14 -7 19 13 16 4 0 7 3 7 8 0 6 -27 26 -60 47 -64 40 -73 49 -37
39 12 -3 -2 7 -32 23 -37 20 -50 31 -40 36 8 3 4 4 -8 2 -12 -2 -23 0 -25 4
-2 4 -19 11 -38 15 -29 6 -33 5 -24 -6z m96 -43 c7 5 8 3 3 -6 -6 -9 -4 -12 7
-8 8 4 21 2 29 -4 11 -8 10 -9 -3 -4 -31 10 -19 -1 49 -44 l67 -42 -39 -23
c-21 -13 -42 -22 -47 -19 -11 7 -128 161 -128 170 0 3 11 -1 25 -10 14 -9 31
-14 37 -10z"/>
<path d="M5758 3143 c7 -3 16 -2 19 1 4 3 -2 6 -13 5 -11 0 -14 -3 -6 -6z"/>
<path d="M5798 3133 c7 -3 16 -2 19 1 4 3 -2 6 -13 5 -11 0 -14 -3 -6 -6z"/>
<path d="M5838 3123 c7 -3 16 -2 19 1 4 3 -2 6 -13 5 -11 0 -14 -3 -6 -6z"/>
<path d="M5878 3113 c7 -3 16 -2 19 1 4 3 -2 6 -13 5 -11 0 -14 -3 -6 -6z"/>
<path d="M5918 3103 c7 -3 16 -2 19 1 4 3 -2 6 -13 5 -11 0 -14 -3 -6 -6z"/>
<path d="M5958 3093 c7 -3 16 -2 19 1 4 3 -2 6 -13 5 -11 0 -14 -3 -6 -6z"/>
<path d="M5869 3066 c25 -13 48 -32 52 -42 7 -17 8 -17 8 -2 1 10 19 27 42 38
23 12 39 24 36 26 -2 3 -21 -5 -42 -17 l-37 -22 -44 21 c-59 29 -71 27 -15 -2z"/>
<path d="M5042 2838 l3 -103 213 -3 212 -2 0 105 0 105 -215 0 -216 0 3 -102z"/>
<path d="M5552 2878 c6 -18 28 -21 28 -4 0 9 -7 16 -16 16 -9 0 -14 -5 -12
-12z"/>
<path d="M1026 2809 c-10 -39 -16 -72 -14 -75 7 -6 148 59 148 68 0 7 -99 78
-110 78 -3 0 -14 -32 -24 -71z"/>
<path d="M5550 2795 c0 -8 7 -15 15 -15 8 0 15 7 15 15 0 8 -7 15 -15 15 -8 0
-15 -7 -15 -15z"/>
<path d="M1111 2614 c5 -6 5 -15 1 -20 -4 -5 -3 -6 2 -2 5 4 14 4 20 -1 7 -6
11 -2 11 12 0 16 -6 22 -22 22 -14 0 -18 -4 -12 -11z"/>
<path d="M1436 2324 c-19 -18 -19 -20 -6 -45 12 -21 40 -25 58 -7 18 18 14 46
-7 58 -25 13 -27 13 -45 -6z"/>
<path d="M1575 2077 c-14 -30 -29 -45 -51 -52 -38 -12 -42 -28 -8 -37 36 -10
62 -35 69 -69 9 -39 16 -36 40 14 15 31 29 45 55 53 39 13 52 34 20 34 -33 0
-68 29 -80 66 -6 19 -15 34 -18 34 -4 -1 -16 -20 -27 -43z m53 -50 l21 -22
-24 -23 -23 -23 -24 24 -24 24 20 21 c26 27 28 27 54 -1z"/>
<path d="M3588 2113 c6 -2 18 -2 25 0 6 3 1 5 -13 5 -14 0 -19 -2 -12 -5z"/>
<path d="M3773 2113 c9 -2 23 -2 30 0 6 3 -1 5 -18 5 -16 0 -22 -2 -12 -5z"/>
<path d="M3563 2098 c1 -7 -4 -12 -11 -10 -8 1 -11 -2 -7 -8 5 -8 11 -8 21 1
7 6 11 15 8 20 -8 13 -14 11 -11 -3z"/>
<path d="M3620 2100 c-8 -5 -10 -10 -5 -11 6 0 18 -2 28 -4 15 -3 16 -1 6 11
-14 16 -10 16 -29 4z"/>
<path d="M3661 2048 c-1 -10 -4 -17 -8 -17 -5 1 -36 1 -70 0 l-63 -1 0 -80 0
-80 80 0 80 0 -1 78 c0 42 -4 86 -9 97 -7 17 -9 17 -9 3z m9 -98 l0 -70 -70 0
-70 0 0 70 0 70 70 0 70 0 0 -70z"/>
<path d="M3831 2047 c-1 -15 -9 -18 -56 -16 -30 1 -58 -1 -62 -4 -3 -4 29 -7
73 -7 43 0 74 4 68 8 -6 4 -14 14 -17 22 -4 12 -6 11 -6 -3z"/>
<path d="M1874 2032 c0 -11 9 -18 24 -18 17 -2 20 1 12 10 -5 7 -8 15 -5 17 2
3 -4 5 -13 6 -10 1 -18 -6 -18 -15z"/>
<path d="M3772 1925 c0 -16 2 -22 5 -12 2 9 2 23 0 30 -3 6 -5 -1 -5 -18z"/>
<path d="M3792 1925 c0 -16 2 -22 5 -12 2 9 2 23 0 30 -3 6 -5 -1 -5 -18z"/>
<path d="M1760 1904 c0 -8 -10 -19 -22 -24 -18 -7 -19 -9 -5 -9 10 -1 21 -9
25 -18 7 -17 8 -17 27 2 l20 20 -22 22 c-17 17 -23 18 -23 7z m25 -23 c7 -12
-12 -24 -25 -16 -11 7 -4 25 10 25 5 0 11 -4 15 -9z"/>
<path d="M3748 1873 c23 -2 59 -2 80 0 20 2 1 4 -43 4 -44 0 -61 -2 -37 -4z"/>
<path d="M4887 1604 c-4 -4 -7 -12 -7 -18 0 -6 5 -4 10 4 8 12 10 10 10 -8 0
-15 -4 -21 -11 -16 -7 4 -10 1 -7 -6 8 -26 28 -22 28 4 0 14 0 29 1 33 1 10
-16 15 -24 7z"/>
<path d="M5026 1602 c-2 -4 4 -8 14 -8 10 0 16 4 14 8 -3 4 -9 8 -14 8 -5 0
-11 -4 -14 -8z"/>
<path d="M5092 1576 c7 -8 15 -12 17 -11 5 6 -10 25 -20 25 -5 0 -4 -6 3 -14z"/>
<path d="M5020 1560 c0 -15 21 -23 32 -12 6 6 2 11 -11 15 -12 3 -21 1 -21 -3z"/>
<path d="M4821 1449 c-1 -152 -4 -150 150 -147 63 1 90 3 61 5 -30 3 -50 8
-47 14 4 5 11 7 16 4 8 -6 11 3 8 23 -3 11 -79 12 -79 0 0 -6 -6 -6 -15 2 -12
10 -15 9 -15 -8 0 -16 6 -19 30 -17 17 1 33 -1 36 -6 8 -14 -110 -11 -124 3
-8 8 -12 45 -12 100 l0 87 143 4 142 3 -142 2 c-138 2 -142 3 -146 25 -2 12
-5 -30 -6 -94z m167 -110 c-2 -6 -8 -10 -13 -10 -5 0 -11 4 -13 10 -2 6 4 11
13 11 9 0 15 -5 13 -11z"/>
<path d="M4943 1440 c0 -36 2 -50 4 -32 2 17 2 47 0 65 -2 17 -4 3 -4 -33z"/>
<path d="M5006 1463 c-6 -14 -5 -15 5 -6 7 7 10 15 7 18 -3 3 -9 -2 -12 -12z"/>
<path d="M1850 1430 c0 -5 20 -10 45 -10 25 0 45 5 45 10 0 6 -20 10 -45 10
-25 0 -45 -4 -45 -10z"/>
<path d="M4981 1394 c0 -11 3 -14 6 -6 3 7 2 16 -1 19 -3 4 -6 -2 -5 -13z"/>
<path d="M5027 1346 c-4 -10 -5 -21 -2 -24 9 -9 17 6 13 25 -3 17 -4 17 -11
-1z"/>
<path d="M2373 563 c-18 -7 -18 -404 -1 -421 14 -14 47 -15 67 -3 11 7 11 13
-3 32 -13 20 -16 54 -16 211 0 173 -1 188 -17 187 -10 0 -24 -3 -30 -6z"/>
<path d="M3733 563 c-10 -3 -13 -57 -13 -219 l0 -214 35 0 35 0 0 53 c0 42 5
58 21 73 23 21 16 27 75 -68 34 -55 38 -58 75 -58 30 0 38 3 33 13 -5 6 -32
49 -61 94 -29 46 -53 86 -53 89 0 3 20 29 45 57 l46 52 -37 3 c-37 3 -38 3
-126 -102 -17 -20 -17 -15 -18 107 0 125 0 127 -22 126 -13 0 -29 -3 -35 -6z"/>
<path d="M750 345 l0 -215 49 0 c76 0 151 18 186 44 89 69 100 249 19 328 -44
43 -84 56 -176 57 l-78 1 0 -215z m165 141 c50 -21 69 -57 69 -130 -1 -100
-44 -158 -122 -160 l-37 -1 -3 153 -3 152 31 0 c17 0 46 -6 65 -14z"/>
<path d="M1144 546 c-12 -31 0 -51 30 -51 36 0 56 26 37 49 -17 20 -60 21 -67
2z"/>
<path d="M1624 546 c-12 -31 0 -51 30 -51 36 0 56 26 37 49 -17 20 -60 21 -67
2z"/>
<path d="M2756 543 c-2 -10 -21 -97 -40 -193 -20 -96 -38 -185 -41 -197 -5
-20 -2 -23 29 -23 l33 0 23 116 c13 63 26 112 30 107 4 -4 25 -56 45 -115 22
-62 43 -108 51 -108 12 0 20 19 75 169 26 74 28 72 54 -71 l19 -98 34 0 c28 0
33 3 30 18 -3 9 -22 106 -43 215 -50 251 -56 254 -115 65 -53 -170 -50 -162
-56 -156 -3 3 -24 68 -47 144 -30 97 -48 140 -59 142 -9 2 -19 -5 -22 -15z"/>
<path d="M4654 546 c-12 -31 0 -51 30 -51 36 0 56 26 37 49 -17 20 -60 21 -67
2z"/>
<path d="M1818 517 c-23 -9 -28 -17 -28 -44 0 -23 -5 -33 -15 -33 -9 0 -15 -9
-15 -25 0 -15 6 -25 14 -25 11 0 15 -23 18 -104 3 -94 5 -107 27 -130 20 -22
33 -26 78 -26 52 0 53 0 53 30 0 27 -2 29 -28 24 -49 -10 -62 14 -62 117 l0
89 40 0 c36 0 40 3 40 25 0 23 -4 25 -40 25 l-40 0 0 45 c0 48 -1 49 -42 32z"/>
<path d="M4428 517 c-23 -9 -28 -17 -28 -44 0 -23 -5 -33 -15 -33 -9 0 -15 -9
-15 -25 0 -15 6 -25 14 -25 11 0 15 -23 18 -104 3 -94 5 -107 27 -130 20 -22
33 -26 78 -26 52 0 53 0 53 30 0 27 -2 29 -28 24 -49 -10 -62 14 -62 117 l0
89 40 0 c36 0 40 3 40 25 0 23 -4 25 -40 25 l-40 0 0 45 c0 48 -1 49 -42 32z"/>
<path d="M1491 446 c-9 -11 -20 -12 -47 -4 -39 10 -87 3 -120 -18 -48 -32 -59
-116 -21 -160 23 -27 23 -28 5 -46 -45 -45 3 -93 84 -82 58 7 88 -2 88 -26 0
-38 -80 -53 -130 -25 -22 12 -27 11 -42 -2 -28 -25 -22 -39 22 -57 136 -54
283 52 195 140 -24 23 -32 25 -93 22 -54 -2 -67 0 -67 12 0 11 15 17 50 20 28
3 60 11 71 17 32 18 48 66 40 122 -5 36 -3 51 6 54 9 3 7 11 -8 26 -18 19 -22
20 -33 7z m-43 -68 c17 -17 15 -74 -4 -92 -34 -35 -94 -5 -94 48 0 40 15 56
55 56 17 0 36 -5 43 -12z"/>
<path d="M5351 446 c-9 -11 -20 -12 -47 -4 -39 10 -87 3 -120 -18 -48 -32 -59
-116 -21 -160 23 -27 23 -28 5 -46 -45 -45 3 -93 84 -82 58 7 88 -2 88 -26 0
-38 -80 -53 -130 -25 -22 12 -27 11 -42 -2 -28 -25 -22 -39 22 -57 136 -54
283 52 195 140 -24 23 -32 25 -93 22 -54 -2 -67 0 -67 12 0 11 15 17 50 20 28
3 60 11 71 17 32 18 48 66 40 122 -5 36 -3 51 6 54 9 3 7 11 -8 26 -18 19 -22
20 -33 7z m-43 -68 c17 -17 15 -74 -4 -92 -34 -35 -94 -5 -94 48 0 40 15 56
55 56 17 0 36 -5 43 -12z"/>
<path d="M2075 443 c-29 -7 -38 -19 -31 -39 5 -16 14 -18 59 -16 40 3 58 -1
70 -13 29 -28 20 -40 -31 -41 -65 -2 -110 -27 -128 -71 -30 -71 12 -133 90
-133 22 1 52 7 66 15 22 12 27 11 42 -2 21 -18 65 -13 59 7 -3 8 -8 61 -12
118 -7 105 -20 141 -59 162 -24 13 -98 21 -125 13z m113 -190 c5 -55 -48 -90
-99 -63 -19 11 -25 45 -11 66 13 20 47 34 77 31 26 -2 30 -6 33 -34z"/>
<path d="M3195 443 c-29 -7 -38 -19 -31 -39 5 -16 14 -18 59 -16 40 3 58 -1
70 -13 29 -28 20 -40 -31 -41 -65 -2 -110 -27 -128 -71 -30 -71 12 -133 90
-133 22 1 52 7 66 15 22 12 27 11 42 -2 21 -18 65 -13 59 7 -3 8 -8 61 -12
118 -7 105 -20 141 -59 162 -24 13 -98 21 -125 13z m113 -190 c5 -55 -48 -90
-99 -63 -19 11 -25 45 -11 66 13 20 47 34 77 31 26 -2 30 -6 33 -34z"/>
<path d="M3565 434 c-19 -10 -31 -11 -33 -5 -2 6 -19 11 -38 11 l-34 0 0 -155
0 -155 35 0 35 0 0 104 c0 91 3 107 21 131 18 22 28 26 56 23 29 -4 37 0 48
23 13 25 13 27 -8 33 -34 9 -50 7 -82 -10z"/>
<path d="M4120 428 c-60 -31 -85 -76 -84 -150 1 -103 56 -151 166 -146 75 4
94 15 83 48 -5 17 -11 20 -28 14 -12 -4 -42 -8 -66 -8 -35 0 -48 5 -67 27 -45
52 -36 57 92 57 l117 0 -5 50 c-6 60 -42 105 -97 120 -51 14 -61 13 -111 -12z
m122 -55 c8 -10 18 -26 21 -35 6 -16 -2 -18 -73 -18 -87 0 -97 8 -60 48 26 28
90 30 112 5z"/>
<path d="M4908 432 c-30 -16 -38 -17 -42 -6 -3 8 -17 14 -31 14 l-25 0 0 -155
0 -155 35 0 35 0 0 116 c0 129 6 143 65 144 60 0 75 -32 75 -166 l0 -94 30 0
30 0 0 114 c0 63 -4 126 -10 140 -21 55 -102 79 -162 48z"/>
<path d="M1110 416 c0 -15 7 -26 20 -29 19 -5 20 -14 20 -131 l0 -126 30 0 30
0 0 155 0 155 -50 0 c-46 0 -50 -2 -50 -24z"/>
<path d="M1590 416 c0 -15 7 -26 20 -29 19 -5 20 -14 20 -131 l0 -126 30 0 30
0 0 155 0 155 -50 0 c-46 0 -50 -2 -50 -24z"/>
<path d="M4620 416 c0 -15 7 -26 20 -29 19 -5 20 -14 20 -131 l0 -126 30 0 30
0 0 155 0 155 -50 0 c-46 0 -50 -2 -50 -24z"/>
</g>
</svg>
