<?xml version="1.0" standalone="no"?>
<!DOCTYPE svg PUBLIC "-//W3C//DTD SVG 20010904//EN"
 "http://www.w3.org/TR/2001/REC-SVG-20010904/DTD/svg10.dtd">
<svg version="1.0" xmlns="http://www.w3.org/2000/svg"
 width="2000.000000pt" height="2000.000000pt" viewBox="0 0 2000.000000 2000.000000"
 preserveAspectRatio="xMidYMid meet">

<g transform="translate(0.000000,2000.000000) scale(0.100000,-0.100000)"
fill="#000000" stroke="none">
<path d="M3280 11203 c0 -11 7 -19 18 -19 9 0 30 -4 47 -8 l30 -8 -25 20 c-14
11 -35 22 -47 26 -18 6 -23 3 -23 -11z"/>
<path d="M3470 11211 c0 -20 33 -41 65 -41 18 0 42 -3 52 -6 15 -6 16 -4 6 6
-8 8 -29 13 -52 12 -32 -2 -41 1 -46 18 -6 20 -25 28 -25 11z"/>
<path d="M3895 11209 c4 -5 12 -8 18 -6 13 4 53 -34 49 -47 -2 -5 4 -4 12 3
10 9 29 11 58 6 39 -7 41 -6 25 10 -9 9 -17 21 -17 26 0 6 -20 7 -49 3 -31 -4
-51 -2 -55 5 -4 6 -16 11 -27 11 -12 0 -17 -4 -14 -11z"/>
<path d="M4767 11214 c-12 -12 3 -22 24 -17 16 4 17 8 7 14 -16 10 -23 11 -31
3z"/>
<path d="M4875 11210 c-39 -6 -39 -6 -12 -14 15 -5 27 -12 27 -17 0 -5 11 -9
24 -9 18 0 24 5 24 25 0 14 -6 24 -12 24 -6 -1 -29 -5 -51 -9z"/>
<path d="M4320 11203 c0 -5 4 -14 9 -21 7 -11 9 -11 14 1 3 8 3 18 0 21 -9 8
-23 7 -23 -1z"/>
<path d="M4605 11185 c33 -26 38 -27 75 -14 24 8 23 8 -5 5 -18 -3 -38 3 -54
15 -35 28 -51 23 -16 -6z"/>
<path d="M5331 11201 c-10 -7 -10 -10 -1 -16 6 -4 16 -3 22 3 13 13 -4 23 -21
13z"/>
<path d="M3428 11192 c-16 -2 -28 -8 -28 -13 0 -8 48 -2 59 7 8 7 -4 9 -31 6z"/>
<path d="M4085 11190 c-3 -5 1 -10 9 -10 9 0 16 -4 16 -9 0 -12 88 -13 95 -1
4 6 18 7 33 3 25 -6 26 -5 10 10 -21 21 -32 21 -54 0 -15 -16 -17 -16 -29 0
-13 18 -70 23 -80 7z"/>
<path d="M4556 11189 c5 -9 -1 -10 -20 -5 -18 4 -25 3 -21 -4 3 -5 17 -10 31
-10 14 0 22 -4 19 -10 -3 -5 3 -10 15 -10 20 0 21 1 3 25 -18 24 -41 36 -27
14z"/>
<path d="M5237 11184 c3 -8 11 -14 19 -14 21 0 17 17 -5 23 -14 3 -18 1 -14
-9z"/>
<path d="M6932 11184 c10 -10 20 -15 24 -12 3 4 -5 12 -18 18 -22 12 -22 12
-6 -6z"/>
<path d="M2945 11179 c-11 -17 -2 -18 19 -3 17 12 17 14 4 14 -9 0 -20 -5 -23
-11z"/>
<path d="M2990 11181 c0 -9 24 -21 42 -21 6 0 6 6 -2 15 -14 16 -40 20 -40 6z"/>
<path d="M3064 11175 c-18 -13 -18 -14 5 -8 14 4 26 1 32 -8 5 -8 9 -9 9 -3 0
24 -26 34 -46 19z"/>
<path d="M3220 11175 c-8 -9 -8 -15 -2 -15 12 0 26 19 19 26 -2 2 -10 -2 -17
-11z"/>
<path d="M3708 11173 c-11 -14 -12 -14 92 7 44 8 44 9 -18 7 -37 -1 -68 -7
-74 -14z"/>
<path d="M3861 11177 c-8 -10 -7 -14 4 -14 8 0 15 6 15 14 0 7 -2 13 -4 13 -2
0 -9 -6 -15 -13z"/>
<path d="M4378 11183 c7 -3 16 -2 19 1 4 3 -2 6 -13 5 -11 0 -14 -3 -6 -6z"/>
<path d="M5388 11183 c7 -3 10 -9 7 -14 -4 -5 8 -9 24 -9 17 0 31 5 31 10 0 6
-8 10 -17 10 -10 0 -27 2 -38 4 -11 2 -14 1 -7 -1z"/>
<path d="M6092 11183 c9 -2 19 -15 22 -29 5 -17 13 -24 29 -23 17 1 18 2 5 6
-22 6 -22 12 -1 35 15 17 14 18 -28 17 -24 -1 -37 -3 -27 -6z"/>
<path d="M6723 11179 c-36 -11 -49 -24 -32 -35 6 -4 16 1 21 10 5 9 17 16 26
16 9 0 24 5 32 10 13 9 13 10 0 9 -8 0 -29 -5 -47 -10z"/>
<path d="M5670 11170 c-18 -12 -2 -12 25 0 13 6 15 9 5 9 -8 0 -22 -4 -30 -9z"/>
<path d="M5865 11170 c-4 -6 6 -7 27 -3 44 8 48 13 10 13 -17 0 -34 -4 -37
-10z"/>
<path d="M827 11164 c-4 -4 -7 -16 -7 -27 0 -16 3 -17 15 -7 8 6 19 9 26 5 7
-5 10 -1 7 11 -3 19 -29 30 -41 18z"/>
<path d="M1435 11160 c-11 -5 -31 -9 -45 -10 -14 0 -43 -9 -65 -20 -48 -23
-61 -24 -68 -6 -4 11 -16 13 -44 9 -21 -3 -43 -9 -48 -14 -6 -4 -24 -6 -40 -4
-17 2 -40 4 -52 4 -12 1 -23 8 -25 17 -2 13 -6 12 -23 -7 -11 -12 -14 -19 -7
-15 6 4 12 4 12 -1 0 -12 120 -14 164 -2 31 8 42 8 53 -4 15 -15 30 -12 98 14
51 19 110 28 122 17 10 -8 13 -5 13 11 0 22 -12 25 -45 11z"/>
<path d="M3155 11154 l-30 -13 27 -1 c15 0 30 5 33 11 11 16 2 17 -30 3z"/>
<path d="M4973 11163 c9 -2 23 -2 30 0 6 3 -1 5 -18 5 -16 0 -22 -2 -12 -5z"/>
<path d="M5510 11160 c-12 -8 -10 -10 8 -10 13 0 20 4 17 10 -7 12 -6 12 -25
0z"/>
<path d="M6393 11163 c9 -2 23 -2 30 0 6 3 -1 5 -18 5 -16 0 -22 -2 -12 -5z"/>
<path d="M7819 11165 c-1 -3 -2 -8 -3 -12 -1 -5 -5 -14 -9 -20 -5 -8 -4 -13 2
-13 6 0 11 5 11 10 0 6 7 10 15 10 8 0 15 7 15 15 0 13 -28 22 -31 10z"/>
<path d="M1885 11155 c-5 -2 -30 -6 -55 -10 -37 -4 -46 -10 -46 -25 0 -19 1
-19 22 1 13 12 27 18 33 15 14 -9 81 4 81 15 0 9 -16 11 -35 4z"/>
<path d="M1978 11153 c7 -3 16 -2 19 1 4 3 -2 6 -13 5 -11 0 -14 -3 -6 -6z"/>
<path d="M2904 11150 c-27 -11 -40 -30 -21 -30 8 0 22 9 32 20 20 22 19 23
-11 10z"/>
<path d="M3625 11150 c-4 -6 3 -10 14 -10 25 0 27 6 6 13 -8 4 -17 2 -20 -3z"/>
<path d="M6558 11153 c7 -3 16 -2 19 1 4 3 -2 6 -13 5 -11 0 -14 -3 -6 -6z"/>
<path d="M6830 11156 c0 -2 11 -6 25 -8 13 -3 22 -1 19 3 -5 9 -44 13 -44 5z"/>
<path d="M7038 11148 c7 -7 41 -11 83 -10 43 2 78 -2 88 -10 13 -10 13 -9 -1
7 -13 14 -34 19 -99 21 -61 2 -79 0 -71 -8z"/>
<path d="M7225 11150 c3 -5 11 -10 16 -10 6 0 7 5 4 10 -3 6 -11 10 -16 10 -6
0 -7 -4 -4 -10z"/>
<path d="M7462 11148 c5 -15 28 -18 29 -3 0 6 -7 12 -17 13 -10 3 -15 -1 -12
-10z"/>
<path d="M1570 11135 c-7 -8 -26 -15 -42 -15 -16 0 -27 -4 -24 -9 3 -5 18 -7
33 -5 16 2 49 7 76 10 26 3 47 11 47 16 0 6 -11 8 -25 6 -14 -3 -28 -1 -31 3
-8 13 -20 11 -34 -6z"/>
<path d="M1680 11140 c-13 -8 -12 -10 4 -10 11 0 27 -7 36 -15 16 -14 18 -14
24 0 4 11 -2 19 -20 25 -30 12 -26 12 -44 0z"/>
<path d="M2205 11142 c-13 -13 0 -17 66 -18 39 -1 75 -6 82 -13 6 -6 18 -11
26 -11 11 0 10 4 -5 21 -12 14 -25 18 -42 14 -12 -3 -28 -3 -34 1 -14 9 -85
13 -93 6z"/>
<path d="M2476 11134 c-4 -10 -1 -14 6 -12 15 5 23 28 10 28 -5 0 -13 -7 -16
-16z"/>
<path d="M2570 11139 c0 -6 -9 -8 -20 -4 -24 8 -26 -1 -5 -22 10 -10 24 -13
41 -9 21 6 23 9 14 26 -11 21 -30 27 -30 9z"/>
<path d="M8030 11144 c0 -10 44 -42 52 -38 16 10 -6 44 -28 44 -13 0 -24 -3
-24 -6z"/>
<path d="M8118 11143 c-29 -7 -21 -20 12 -20 17 0 29 5 27 11 -4 12 -16 15
-39 9z"/>
<path d="M886 11131 c-3 -5 1 -12 10 -15 20 -8 29 -1 19 13 -8 13 -22 14 -29
2z"/>
<path d="M2418 11133 c-30 -8 -20 -20 12 -15 16 2 27 8 24 13 -5 9 -8 10 -36
2z"/>
<path d="M2695 11124 c18 -7 36 -9 46 -4 8 5 35 7 60 4 33 -3 39 -2 23 5 -12
5 -53 9 -90 8 -65 0 -67 -1 -39 -13z"/>
<path d="M6968 11133 c7 -3 16 -2 19 1 4 3 -2 6 -13 5 -11 0 -14 -3 -6 -6z"/>
<path d="M7343 11133 c9 -2 25 -2 35 0 9 3 1 5 -18 5 -19 0 -27 -2 -17 -5z"/>
<path d="M8517 11133 c-14 -14 -6 -20 19 -15 19 3 22 7 12 13 -16 11 -23 11
-31 2z"/>
<path d="M9120 11130 c0 -5 5 -10 11 -10 5 0 7 5 4 10 -3 6 -8 10 -11 10 -2 0
-4 -4 -4 -10z"/>
<path d="M9550 11127 c0 -8 9 -22 19 -31 15 -14 24 -15 40 -7 11 6 36 11 57
11 21 0 34 3 31 7 -4 3 -25 6 -47 5 -28 -1 -42 3 -46 13 -8 19 -54 20 -54 2z
m45 -17 c3 -5 2 -10 -4 -10 -5 0 -13 5 -16 10 -3 6 -2 10 4 10 5 0 13 -4 16
-10z"/>
<path d="M10160 11130 c-11 -7 -7 -10 18 -10 17 0 32 5 32 10 0 13 -30 13 -50
0z"/>
<path d="M1911 11114 c0 -11 3 -14 6 -6 3 7 2 16 -1 19 -3 4 -6 -2 -5 -13z"/>
<path d="M8330 11117 c0 -16 27 -17 54 -3 l28 14 -41 -1 c-22 -1 -41 -6 -41
-10z"/>
<path d="M8453 11117 c5 -15 37 -22 37 -9 0 5 -9 12 -21 15 -13 3 -19 1 -16
-6z"/>
<path d="M9355 11120 c4 -6 11 -8 16 -5 14 9 11 15 -7 15 -8 0 -12 -5 -9 -10z"/>
<path d="M10268 11123 c7 -3 16 -2 19 1 4 3 -2 6 -13 5 -11 0 -14 -3 -6 -6z"/>
<path d="M10355 11114 c22 -16 35 -18 35 -5 0 5 -12 11 -27 14 -26 5 -26 4 -8
-9z"/>
<path d="M737 11106 c-10 -8 -14 -16 -10 -19 5 -3 14 3 21 14 14 22 13 23 -11
5z"/>
<path d="M950 11107 c0 -10 8 -17 18 -17 9 0 13 4 7 8 -5 4 -13 11 -17 16 -5
5 -8 2 -8 -7z"/>
<path d="M2155 11110 c-3 -6 -25 -10 -48 -11 l-42 -1 39 -9 c49 -12 91 0 71
18 -9 8 -16 9 -20 3z"/>
<path d="M3840 11112 c0 -6 12 -20 28 -31 15 -11 21 -21 14 -21 -31 0 18 -30
50 -30 49 0 63 12 38 35 -17 16 -20 16 -20 2 0 -22 -17 -30 -37 -18 -12 7 -14
10 -4 11 11 0 11 3 1 15 -7 8 -17 15 -23 15 -6 0 -19 7 -29 17 -10 9 -18 11
-18 5z"/>
<path d="M8980 11110 c0 -5 7 -10 15 -10 8 0 15 5 15 10 0 6 -7 10 -15 10 -8
0 -15 -4 -15 -10z"/>
<path d="M10845 11110 c3 -5 10 -10 16 -10 5 0 9 5 9 10 0 6 -7 10 -16 10 -8
0 -12 -4 -9 -10z"/>
<path d="M11077 11108 c-9 -5 -9 -10 1 -20 9 -9 15 -9 24 0 14 14 52 16 43 2
-4 -6 8 -11 27 -11 18 -1 52 -3 76 -3 26 -2 41 2 39 8 -2 7 -30 10 -68 9 -55
-1 -59 0 -24 6 22 5 38 9 35 10 -16 6 -144 5 -153 -1z"/>
<path d="M12120 11100 c6 -12 20 -20 33 -19 17 1 18 2 5 6 -10 2 -18 11 -18
19 0 8 -7 14 -15 14 -13 0 -14 -4 -5 -20z"/>
<path d="M786 11076 c-8 -18 -22 -39 -31 -46 -17 -14 -20 -30 -6 -30 11 0 52
55 55 73 1 7 5 18 9 25 5 6 4 12 -1 12 -5 0 -17 -15 -26 -34z"/>
<path d="M1946 11101 c-3 -5 1 -11 9 -15 8 -3 15 -1 15 4 0 13 -18 22 -24 11z"/>
<path d="M2000 11096 c0 -9 8 -12 25 -8 14 2 25 8 25 13 0 5 -11 9 -25 9 -14
0 -25 -6 -25 -14z"/>
<path d="M2680 11101 c0 -9 30 -24 36 -18 2 1 -6 8 -16 15 -11 7 -20 8 -20 3z"/>
<path d="M10545 11100 c-3 -6 1 -7 9 -4 18 7 21 14 7 14 -6 0 -13 -4 -16 -10z"/>
<path d="M10670 11103 c0 -5 4 -15 10 -23 11 -18 25 -7 17 15 -6 15 -27 21
-27 8z"/>
<path d="M11410 11095 c8 -9 21 -13 36 -9 15 4 24 2 24 -5 0 -6 5 -11 12 -11
6 0 3 9 -7 20 -22 24 -85 29 -65 5z"/>
<path d="M12586 11103 c-13 -14 -5 -21 29 -25 19 -2 35 -3 35 -1 0 7 -58 31
-64 26z"/>
<path d="M12030 11086 c6 -8 18 -12 26 -9 23 9 16 23 -12 23 -22 0 -24 -2 -14
-14z"/>
<path d="M2447 11074 c3 -7 9 -14 14 -14 14 0 10 17 -5 23 -10 4 -13 1 -9 -9z"/>
<path d="M4580 11071 c-6 -12 -6 -22 -1 -25 5 -4 11 -1 13 6 6 17 39 1 45 -22
4 -15 9 -18 18 -10 7 5 30 16 51 24 l39 14 -46 0 c-26 0 -61 7 -78 16 -28 15
-31 15 -41 -3z"/>
<path d="M5220 11080 c0 -5 7 -10 16 -10 8 0 12 5 9 10 -3 6 -10 10 -16 10 -5
0 -9 -4 -9 -10z"/>
<path d="M11780 11080 c0 -5 5 -10 11 -10 5 0 7 5 4 10 -3 6 -8 10 -11 10 -2
0 -4 -4 -4 -10z"/>
<path d="M12955 11080 c3 -5 8 -10 11 -10 2 0 4 5 4 10 0 6 -5 10 -11 10 -5 0
-7 -4 -4 -10z"/>
<path d="M13302 11068 c3 -21 16 -24 90 -19 18 1 -58 41 -78 41 -10 0 -14 -7
-12 -22z"/>
<path d="M13140 11073 c8 -3 22 -11 30 -17 13 -10 13 -9 1 7 -7 9 -21 17 -30
16 -13 0 -14 -1 -1 -6z"/>
<path d="M14030 11073 c1 -17 29 -45 43 -41 9 2 5 10 -15 26 -15 13 -28 20
-28 15z"/>
<path d="M4086 11062 c-3 -6 1 -13 10 -16 23 -9 28 -2 10 13 -8 7 -17 8 -20 3z"/>
<path d="M5615 11060 c3 -6 20 -10 37 -10 38 0 34 5 -10 13 -21 4 -31 3 -27
-3z"/>
<path d="M14107 11053 c8 -22 24 -34 36 -26 9 5 -21 43 -34 43 -5 0 -5 -8 -2
-17z"/>
<path d="M2555 11050 c3 -5 13 -10 21 -10 8 0 14 5 14 10 0 6 -9 10 -21 10
-11 0 -17 -4 -14 -10z"/>
<path d="M2705 11050 c-4 -7 -18 -10 -31 -7 -13 2 -24 0 -24 -4 0 -12 41 -11
60 1 8 5 12 12 8 15 -3 4 -9 1 -13 -5z"/>
<path d="M13638 11048 c9 -9 15 -9 24 0 9 9 7 12 -12 12 -19 0 -21 -3 -12 -12z"/>
<path d="M14362 11046 c-19 -10 -21 -15 -10 -23 17 -13 108 -23 108 -12 0 8
-29 13 -57 10 -7 -1 -10 5 -7 13 8 20 -8 26 -34 12z"/>
<path d="M3306 11035 c10 -7 23 -10 29 -7 14 9 138 3 148 -7 10 -10 65 1 93
18 17 11 16 11 -6 4 -28 -9 -51 -9 -189 0 -80 5 -91 4 -75 -8z"/>
<path d="M3730 11035 c-11 -13 -10 -15 6 -12 20 3 31 20 16 25 -5 1 -15 -4
-22 -13z"/>
<path d="M3823 11043 c9 -2 17 -9 17 -14 0 -6 5 -7 11 -3 14 8 -8 24 -31 23
-11 -1 -10 -3 3 -6z"/>
<path d="M4365 11040 c3 -5 10 -10 16 -10 5 0 9 5 9 10 0 6 -7 10 -16 10 -8 0
-12 -4 -9 -10z"/>
<path d="M4815 11040 c3 -5 12 -10 20 -10 8 0 17 5 20 10 4 6 -5 10 -20 10
-15 0 -24 -4 -20 -10z"/>
<path d="M14208 11042 c-42 -5 -34 -20 10 -19 20 1 49 -2 65 -6 21 -6 27 -4
27 8 0 9 -4 13 -10 10 -5 -3 -10 0 -10 7 0 9 -3 9 -10 -2 -7 -11 -14 -12 -27
-5 -10 6 -30 9 -45 7z"/>
<path d="M15326 11042 c-3 -5 -28 -8 -55 -6 -39 2 -49 -1 -44 -12 6 -16 9 -16
38 -5 11 4 34 5 52 1 22 -5 33 -4 37 5 8 21 -16 35 -28 17z"/>
<path d="M2600 11029 c0 -5 5 -7 10 -4 6 3 10 8 10 11 0 2 -4 4 -10 4 -5 0
-10 -5 -10 -11z"/>
<path d="M3650 11027 l-25 -10 23 -5 c26 -4 36 1 31 16 -3 6 -14 5 -29 -1z"/>
<path d="M14860 11028 c1 -17 47 -51 54 -40 3 5 -8 19 -24 31 -20 14 -30 17
-30 9z"/>
<path d="M14930 11025 c0 -8 6 -15 14 -15 7 0 19 7 26 15 11 13 8 15 -14 15
-16 0 -26 -5 -26 -15z"/>
<path d="M3240 11014 c-14 -7 -35 -14 -47 -14 -13 0 -23 -4 -23 -10 0 -5 9
-10 19 -10 11 0 23 5 26 10 3 6 17 10 31 10 15 0 24 6 24 15 0 8 -1 15 -2 14
-2 -1 -14 -7 -28 -15z"/>
<path d="M14616 11017 c3 -10 9 -15 12 -12 3 3 0 11 -7 18 -10 9 -11 8 -5 -6z"/>
<path d="M15130 11021 c0 -8 41 -23 47 -17 2 1 -8 8 -22 14 -14 6 -25 8 -25 3z"/>
<path d="M15385 11009 c-4 -6 -5 -12 -2 -15 2 -3 7 2 10 11 7 17 1 20 -8 4z"/>
<path d="M16315 11010 c3 -5 8 -10 11 -10 2 0 4 5 4 10 0 6 -5 10 -11 10 -5 0
-7 -4 -4 -10z"/>
<path d="M3103 10997 c-18 -6 -33 -15 -33 -19 0 -12 11 -9 55 12 43 21 31 24
-22 7z"/>
<path d="M15306 11003 c-11 -11 -6 -23 8 -23 8 0 17 4 20 9 7 10 -19 23 -28
14z"/>
<path d="M16187 10989 c7 -7 15 -10 18 -7 3 3 -2 9 -12 12 -14 6 -15 5 -6 -5z"/>
<path d="M16562 10974 c-18 -20 -15 -24 18 -24 21 0 28 4 24 14 -8 21 -27 26
-42 10z"/>
<path d="M702 10940 c-14 -23 -12 -24 22 -9 14 7 23 16 20 20 -9 15 -29 10
-42 -11z"/>
<path d="M3155 10940 c-16 -7 -17 -9 -3 -9 9 -1 20 4 23 9 7 11 7 11 -20 0z"/>
<path d="M3260 10940 c0 -5 5 -10 10 -10 6 0 10 5 10 10 0 6 -4 10 -10 10 -5
0 -10 -4 -10 -10z"/>
<path d="M3315 10940 c-4 -6 2 -7 80 -10 78 -3 119 -1 111 7 -8 8 -186 11
-191 3z"/>
<path d="M3535 10930 c3 -5 15 -10 26 -10 11 0 17 5 14 10 -3 6 -15 10 -26 10
-11 0 -17 -4 -14 -10z"/>
<path d="M3815 10929 c-11 -17 0 -20 28 -10 17 7 28 7 32 1 8 -12 45 -13 45
-1 0 20 -94 29 -105 10z"/>
<path d="M3757 10923 c-13 -13 -7 -21 13 -16 11 3 20 9 20 14 0 10 -24 12 -33
2z"/>
<path d="M3613 10908 c21 -7 32 -7 40 1 8 8 0 11 -28 10 -40 -1 -40 -1 -12
-11z"/>
<path d="M3705 10910 c3 -5 8 -10 11 -10 2 0 4 5 4 10 0 6 -5 10 -11 10 -5 0
-7 -4 -4 -10z"/>
<path d="M3948 10908 c5 -5 16 -8 23 -6 8 3 3 7 -10 11 -17 4 -21 3 -13 -5z"/>
<path d="M4030 10889 c0 -4 29 -9 65 -11 40 -2 61 0 55 7 -11 10 -120 14 -120
4z"/>
<path d="M10177 10889 c7 -7 15 -10 18 -7 3 3 -2 9 -12 12 -14 6 -15 5 -6 -5z"/>
<path d="M18100 10882 c0 -12 4 -22 9 -22 10 0 9 26 -2 36 -4 4 -7 -2 -7 -14z"/>
<path d="M700 10876 c0 -8 -6 -17 -12 -19 -10 -4 -10 -6 -1 -6 7 -1 17 8 23
19 7 14 7 20 0 20 -5 0 -10 -6 -10 -14z"/>
<path d="M4630 10881 c0 -11 25 -21 53 -21 21 1 21 1 -3 15 -29 16 -50 19 -50
6z"/>
<path d="M4945 10877 c-15 -12 -16 -15 -2 -20 9 -3 18 1 21 10 9 22 3 25 -19
10z"/>
<path d="M11530 10876 c0 -2 9 -6 20 -9 11 -3 20 -1 20 4 0 5 -9 9 -20 9 -11
0 -20 -2 -20 -4z"/>
<path d="M11628 10868 c8 -8 23 -8 54 -1 l43 11 -54 1 c-42 1 -52 -2 -43 -11z"/>
<path d="M12168 10873 c7 -3 16 -2 19 1 4 3 -2 6 -13 5 -11 0 -14 -3 -6 -6z"/>
<path d="M12545 10870 c-3 -5 1 -10 10 -10 9 0 13 5 10 10 -3 6 -8 10 -10 10
-2 0 -7 -4 -10 -10z"/>
<path d="M4167 10858 c-7 -4 13 -8 43 -9 30 -1 70 -2 87 -3 18 0 33 2 33 5 0
4 21 4 46 1 32 -3 45 -2 40 6 -7 12 -229 12 -249 0z"/>
<path d="M4560 10861 c-20 -6 -22 -8 -8 -13 9 -4 22 -1 28 8 7 8 11 14 9 13
-2 -1 -15 -4 -29 -8z"/>
<path d="M4750 10861 c0 -8 34 -21 55 -21 11 1 -35 29 -47 30 -5 0 -8 -4 -8
-9z"/>
<path d="M4890 10859 c0 -5 5 -7 10 -4 6 3 10 8 10 11 0 2 -4 4 -10 4 -5 0
-10 -5 -10 -11z"/>
<path d="M7020 10855 c0 -9 6 -12 15 -9 8 4 12 10 9 15 -8 14 -24 10 -24 -6z"/>
<path d="M7959 10859 c-8 -5 -12 -9 -9 -10 3 0 15 -2 28 -5 12 -2 22 0 22 5 0
14 -25 20 -41 10z"/>
<path d="M12050 10860 c0 -6 19 -7 48 -3 64 8 66 13 4 13 -29 0 -52 -4 -52
-10z"/>
<path d="M12390 10860 c8 -5 26 -9 40 -9 l25 1 -25 8 c-14 4 -32 8 -40 9 -13
1 -13 0 0 -9z"/>
<path d="M19357 10863 c-10 -10 -8 -25 2 -19 15 9 71 -15 71 -30 0 -8 -7 -29
-16 -46 -10 -20 -13 -39 -8 -57 4 -14 6 -30 5 -36 -2 -5 -4 -28 -6 -50 -2 -22
-7 -48 -10 -57 -4 -10 -3 -18 2 -18 15 0 32 57 20 69 -7 7 -3 16 12 29 21 16
22 19 7 31 -22 18 -20 69 3 107 22 35 19 42 -27 67 -37 19 -45 20 -55 10z"/>
<path d="M4453 10853 c15 -2 37 -2 50 0 12 2 0 4 -28 4 -27 0 -38 -2 -22 -4z"/>
<path d="M4825 10850 c-3 -5 -1 -10 4 -10 6 0 11 5 11 10 0 6 -2 10 -4 10 -3
0 -8 -4 -11 -10z"/>
<path d="M4858 10853 c7 -3 16 -2 19 1 4 3 -2 6 -13 5 -11 0 -14 -3 -6 -6z"/>
<path d="M5948 10848 c9 -9 15 -9 24 0 9 9 7 12 -12 12 -19 0 -21 -3 -12 -12z"/>
<path d="M7198 10853 c6 -2 18 -2 25 0 6 3 1 5 -13 5 -14 0 -19 -2 -12 -5z"/>
<path d="M11795 10850 c3 -5 15 -10 26 -10 11 0 17 5 14 10 -3 6 -15 10 -26
10 -11 0 -17 -4 -14 -10z"/>
<path d="M13255 10850 c3 -5 11 -10 16 -10 6 0 7 5 4 10 -3 6 -11 10 -16 10
-6 0 -7 -4 -4 -10z"/>
<path d="M19312 10835 c-13 -28 -2 -34 18 -10 9 11 10 19 3 26 -6 6 -13 1 -21
-16z"/>
<path d="M16503 10843 c9 -2 23 -2 30 0 6 3 -1 5 -18 5 -16 0 -22 -2 -12 -5z"/>
<path d="M13085 10830 c3 -5 14 -10 23 -10 15 0 15 2 2 10 -20 13 -33 13 -25
0z"/>
<path d="M17230 10829 c0 -3 10 -9 23 -13 30 -8 37 -7 37 3 0 5 -13 11 -30 13
-16 3 -30 1 -30 -3z"/>
<path d="M9055 10819 c-3 -4 11 -9 30 -11 19 -2 35 -1 35 3 0 9 -60 17 -65 8z"/>
<path d="M692 10800 c0 -14 2 -19 5 -12 2 6 2 18 0 25 -3 6 -5 1 -5 -13z"/>
<path d="M4977 10799 c4 -13 9 -17 15 -11 11 11 3 32 -12 32 -4 0 -6 -9 -3
-21z"/>
<path d="M16905 10809 c-19 -9 -19 -9 1 -6 11 3 42 1 68 -3 26 -4 43 -4 39 0
-14 13 -87 19 -108 9z"/>
<path d="M17405 10810 c3 -5 8 -10 11 -10 2 0 4 5 4 10 0 6 -5 10 -11 10 -5 0
-7 -4 -4 -10z"/>
<path d="M19240 10805 c-13 -16 -3 -20 24 -9 9 3 13 10 10 15 -8 13 -20 11
-34 -6z"/>
<path d="M5103 10803 c9 -2 23 -2 30 0 6 3 -1 5 -18 5 -16 0 -22 -2 -12 -5z"/>
<path d="M5365 10800 c4 -6 11 -8 16 -5 14 9 11 15 -7 15 -8 0 -12 -5 -9 -10z"/>
<path d="M6595 10801 c6 -5 24 -13 40 -17 39 -9 30 0 -15 15 -19 6 -30 7 -25
2z"/>
<path d="M17497 10799 c8 -8 16 -8 30 0 16 9 14 10 -11 11 -22 0 -27 -3 -19
-11z"/>
<path d="M19187 10803 c-4 -3 -7 -13 -7 -21 0 -12 3 -12 15 -2 8 7 15 16 15
21 0 11 -14 12 -23 2z"/>
<path d="M7214 10785 c-4 -9 -18 -22 -33 -30 l-26 -15 35 2 c25 2 34 7 32 18
-2 8 0 12 3 8 4 -4 16 -3 26 2 12 7 22 6 33 -5 8 -8 23 -15 33 -14 12 0 7 6
-14 16 -18 9 -33 20 -33 25 0 15 -51 8 -56 -7z"/>
<path d="M15220 10791 c0 -10 30 -24 37 -17 3 2 -5 9 -16 16 -12 6 -21 7 -21
1z"/>
<path d="M17710 10789 c50 -13 277 -23 283 -13 3 5 -25 9 -61 9 -37 0 -110 3
-162 7 -62 4 -83 3 -60 -3z"/>
<path d="M17030 10779 c0 -5 9 -9 20 -9 11 0 20 2 20 4 0 2 -9 6 -20 9 -11 3
-20 1 -20 -4z"/>
<path d="M17562 10774 c10 -10 20 -16 22 -13 3 3 -5 11 -17 18 -21 13 -21 12
-5 -5z"/>
<path d="M18455 10780 c-3 -5 -22 -10 -41 -10 -39 0 -38 -15 0 -22 16 -3 27 0
31 10 3 8 12 12 20 9 9 -4 12 -1 8 9 -6 17 -10 17 -18 4z"/>
<path d="M8480 10772 c0 -4 14 -20 30 -35 19 -18 30 -24 30 -15 0 8 -11 24
-25 36 -27 23 -35 27 -35 14z"/>
<path d="M14188 10773 c7 -3 16 -2 19 1 4 3 -2 6 -13 5 -11 0 -14 -3 -6 -6z"/>
<path d="M18050 10770 c-15 -5 22 -8 90 -8 63 0 141 -3 173 -7 36 -5 57 -4 57
3 0 18 -266 28 -320 12z"/>
<path d="M5205 10760 c-3 -5 3 -10 15 -10 12 0 18 5 15 10 -3 6 -10 10 -15 10
-5 0 -12 -4 -15 -10z"/>
<path d="M6175 10760 c-3 -5 -1 -10 4 -10 6 0 11 5 11 10 0 6 -2 10 -4 10 -3
0 -8 -4 -11 -10z"/>
<path d="M14220 10766 c0 -2 7 -6 15 -10 8 -3 15 -1 15 4 0 6 -7 10 -15 10 -8
0 -15 -2 -15 -4z"/>
<path d="M17606 10759 c6 -11 41 -12 47 -1 3 4 -8 7 -24 8 -15 1 -26 -3 -23
-7z"/>
<path d="M18810 10753 c0 -14 2 -15 9 -4 5 7 17 11 27 8 11 -3 83 -9 160 -12
127 -6 142 -5 148 10 5 15 2 16 -21 9 -35 -9 -40 -9 -195 0 -119 6 -128 6
-128 -11z"/>
<path d="M6225 10750 c-3 -5 3 -10 14 -10 12 0 21 5 21 10 0 6 -6 10 -14 10
-8 0 -18 -4 -21 -10z"/>
<path d="M7510 10755 c0 -2 10 -10 23 -16 20 -11 21 -11 8 4 -13 16 -31 23
-31 12z"/>
<path d="M9293 10736 c43 -29 57 -32 57 -12 0 7 -10 16 -22 19 -13 3 -34 9
-48 13 -19 5 -17 1 13 -20z"/>
<path d="M18737 10753 c-20 -2 -35 -8 -33 -12 7 -10 76 -1 76 10 0 5 -1 8 -2
7 -2 -1 -20 -3 -41 -5z"/>
<path d="M686 10734 c-9 -23 -8 -24 17 -23 16 1 17 3 5 6 -10 2 -15 10 -11 19
3 8 3 14 0 14 -3 0 -8 -7 -11 -16z"/>
<path d="M5160 10739 c0 -5 5 -7 10 -4 6 3 10 8 10 11 0 2 -4 4 -10 4 -5 0
-10 -5 -10 -11z"/>
<path d="M5875 10740 c-13 -6 -15 -9 -5 -9 8 0 22 4 30 9 18 12 2 12 -25 0z"/>
<path d="M9893 10737 c-3 -5 -12 -6 -20 -3 -23 9 -63 -4 -63 -21 0 -10 6 -12
20 -8 21 7 65 -17 53 -28 -3 -4 2 -7 13 -8 113 -7 137 -6 119 1 -11 5 -37 9
-57 9 -39 1 -88 19 -88 32 0 8 15 12 115 29 50 8 50 8 -18 6 -38 0 -71 -5 -74
-9z"/>
<path d="M11365 10743 c-12 -2 -26 -12 -32 -22 -11 -17 -9 -17 24 -6 26 9 45
10 70 2 24 -8 46 -8 74 0 21 5 39 7 39 4 0 -4 24 -12 53 -19 28 -7 62 -15 75
-18 13 -4 22 -2 22 5 0 6 -15 11 -34 11 -19 0 -38 5 -41 10 -3 6 -15 10 -26
10 -10 0 -19 4 -19 10 0 5 -29 8 -67 7 -38 -1 -79 1 -93 4 -14 3 -34 4 -45 2z"/>
<path d="M14270 10739 c0 -9 13 -15 32 -16 17 -1 34 -7 38 -12 3 -6 17 -7 30
-4 22 6 20 8 -20 19 -25 6 -53 15 -62 19 -12 5 -18 3 -18 -6z"/>
<path d="M16220 10740 c-36 -8 -24 -14 20 -10 32 3 65 20 35 18 -11 0 -36 -4
-55 -8z"/>
<path d="M8450 10730 c0 -5 7 -10 15 -10 8 0 15 5 15 10 0 6 -7 10 -15 10 -8
0 -15 -4 -15 -10z"/>
<path d="M18596 10731 c-11 -4 -15 -10 -9 -14 5 -3 19 0 29 8 20 15 11 18 -20
6z"/>
<path d="M10470 10710 c-16 -16 -34 -20 -87 -21 -47 -1 -60 -3 -43 -8 35 -11
99 -2 137 17 27 13 36 14 56 3 15 -8 46 -11 88 -7 35 3 77 5 94 5 28 1 28 2
12 19 -12 11 -20 13 -25 6 -12 -18 -123 -25 -152 -9 -35 20 -57 18 -80 -5z"/>
<path d="M11235 10720 c3 -5 10 -10 16 -10 5 0 9 5 9 10 0 6 -7 10 -16 10 -8
0 -12 -4 -9 -10z"/>
<path d="M12568 10723 c7 -3 16 -2 19 1 4 3 -2 6 -13 5 -11 0 -14 -3 -6 -6z"/>
<path d="M16150 10719 c-14 -5 -77 -13 -140 -18 l-115 -9 139 4 c77 2 141 6
144 8 12 13 -6 22 -28 15z"/>
<path d="M18655 10720 c-3 -5 1 -10 10 -10 9 0 13 5 10 10 -3 6 -8 10 -10 10
-2 0 -7 -4 -10 -10z"/>
<path d="M6870 10710 c0 -12 42 -31 50 -23 6 5 -30 33 -42 33 -4 0 -8 -5 -8
-10z"/>
<path d="M8678 10713 c-31 -8 -19 -23 16 -20 22 1 32 6 29 15 -5 12 -14 13
-45 5z"/>
<path d="M10050 10711 c0 -5 -8 -12 -17 -14 -15 -4 -15 -5 -2 -6 9 0 22 6 29
14 9 10 9 15 1 15 -6 0 -11 -4 -11 -9z"/>
<path d="M10135 10709 c-12 -19 5 -23 22 -6 16 16 16 17 1 17 -9 0 -20 -5 -23
-11z"/>
<path d="M13615 10710 c3 -5 8 -10 11 -10 2 0 4 5 4 10 0 6 -5 10 -11 10 -5 0
-7 -4 -4 -10z"/>
<path d="M14510 10709 c-45 -8 -43 -9 70 -12 53 -2 82 -1 65 4 -53 12 -99 15
-135 8z"/>
<path d="M14720 10714 c0 -5 13 -17 29 -27 16 -9 31 -28 33 -42 l5 -26 -256 1
c-141 0 -262 0 -268 0 -7 0 -12 -6 -10 -12 1 -8 -12 -14 -35 -16 -21 -2 -38
-7 -38 -13 0 -5 -15 -9 -34 -9 -19 0 -37 -4 -41 -9 -3 -5 -38 -10 -78 -10 -39
0 -79 -1 -87 -2 -8 -1 -27 -1 -43 -1 -24 2 -27 5 -21 26 5 21 3 24 -15 19 -15
-4 -20 -11 -16 -23 10 -31 -13 -32 -31 -1 l-18 30 -100 -6 c-56 -3 -120 -6
-144 -7 -25 0 -46 -7 -52 -15 -7 -12 -35 -14 -146 -13 -75 2 -140 5 -144 7 -4
2 -21 0 -38 -5 -17 -4 -66 -5 -109 -1 -61 6 -80 5 -86 -6 -11 -18 -81 -17
-118 3 -23 11 -29 20 -24 35 6 18 1 19 -82 19 -48 0 -97 1 -108 2 -11 1 -45 1
-74 0 -77 -3 -53 -22 34 -29 37 -2 83 -12 103 -20 34 -14 35 -16 18 -29 -12
-8 -29 -11 -45 -7 -14 3 -30 6 -36 5 -27 -5 -357 -9 -379 -5 -17 4 -26 12 -26
25 0 15 -3 17 -19 9 -14 -8 -22 -7 -31 4 -10 13 -7 16 19 21 52 11 45 23 -14
21 -30 -1 -49 -4 -43 -8 6 -4 8 -14 5 -23 -5 -13 -15 -16 -44 -11 -80 13 -93
17 -93 26 0 6 -8 9 -17 7 -10 -1 -24 1 -31 6 -14 9 -131 21 -192 19 -19 0
-271 -1 -560 -2 -346 -1 -530 -5 -540 -12 -11 -8 -12 -12 -2 -16 19 -7 14 -23
-8 -23 -12 0 -17 5 -14 14 3 7 -3 16 -12 20 -22 8 -33 -2 -14 -14 23 -14 -7
-40 -46 -38 -43 2 -44 22 -1 35 28 9 30 11 13 18 -13 6 -21 4 -24 -3 -5 -16
-71 -15 -102 1 -17 9 -32 11 -47 4 -12 -5 -30 -6 -40 -2 -18 8 -305 16 -448
13 -134 -3 -164 0 -194 22 -34 23 -61 26 -61 6 0 -8 12 -17 28 -19 15 -3 -19
-4 -75 -3 -81 1 -104 4 -109 16 -5 10 -9 3 -15 -20 -6 -27 -4 -37 7 -43 13 -8
13 -11 -3 -22 -29 -22 -5 -36 42 -25 42 10 75 5 75 -11 0 -14 -51 -32 -85 -30
-16 2 -52 4 -80 5 -27 1 -57 5 -65 8 -47 19 -221 10 -228 -12 -5 -15 -32 -12
-38 5 -8 19 -14 19 -44 -5 -25 -19 -16 -19 905 -19 650 0 922 3 905 11 -14 5
-40 17 -57 25 -32 16 -33 16 -12 31 16 11 26 12 45 3 14 -6 34 -11 46 -11 16
0 20 -5 16 -27 l-4 -28 154 -3 c103 -3 157 0 161 7 10 16 197 20 194 4 -2 -9
9 -13 32 -13 19 0 35 5 35 10 0 6 5 10 11 10 5 0 7 -4 4 -10 -3 -5 1 -10 9
-10 9 0 16 5 16 10 0 6 11 10 25 10 14 0 25 -6 25 -12 0 -9 3 -8 10 2 5 9 5
19 -2 27 -19 23 8 15 40 -12 22 -19 41 -25 75 -25 25 0 49 5 52 10 3 6 17 10
31 10 14 0 22 -4 19 -10 -3 -5 1 -10 9 -10 9 0 16 7 16 15 0 8 5 15 10 15 6 0
10 -4 10 -10 0 -5 13 -7 30 -4 18 4 36 1 45 -6 11 -9 15 -9 15 -1 0 8 8 10 20
7 11 -3 29 -9 40 -12 15 -4 18 -2 14 11 -5 13 -2 15 22 9 27 -7 28 -6 15 10
-13 16 -12 17 15 10 16 -4 36 -13 46 -21 12 -11 29 -13 62 -8 31 5 46 4 46 -4
0 -6 7 -11 15 -11 8 0 15 4 15 9 0 15 50 19 65 5 16 -16 101 -19 110 -4 3 6
11 10 16 10 6 0 7 -4 4 -10 -9 -15 61 -12 85 3 16 9 22 9 28 0 6 -9 44 -13
130 -12 67 0 130 -5 141 -10 27 -15 51 -15 31 0 -12 9 -11 9 5 4 11 -4 29 -9
40 -12 16 -4 17 -3 6 5 -11 8 -7 10 15 9 16 0 123 0 239 1 162 2 206 5 197 14
-22 22 -13 36 26 37 20 0 46 2 57 4 12 1 19 -3 17 -12 -8 -40 0 -41 488 -41
343 0 469 3 472 11 3 9 9 9 25 1 13 -7 84 -12 178 -14 126 -1 158 1 166 13 5
8 9 9 9 2 0 -7 27 -13 80 -15 61 -2 80 0 80 10 0 9 8 7 26 -7 28 -22 64 -28
64 -11 0 6 27 10 60 10 33 0 60 4 60 8 0 13 44 9 53 -5 8 -14 33 -7 59 14 9 9
22 12 29 7 9 -5 7 -10 -7 -15 -22 -9 -18 -9 228 -12 107 -1 167 2 167 8 -3 29
3 35 39 34 49 -1 80 -13 63 -24 -8 -4 -16 -2 -21 5 -6 9 -14 8 -36 -4 l-29
-15 55 -1 c31 0 61 5 67 11 8 8 13 8 17 0 4 -6 35 -10 74 -10 37 1 56 4 42 6
-14 2 -31 12 -37 21 -12 14 -13 14 -13 -1 0 -9 -4 -17 -8 -17 -14 0 -21 11
-15 26 7 20 43 17 58 -3 13 -17 14 -17 34 1 20 18 21 18 32 -8 10 -21 15 -24
27 -13 12 9 16 9 19 0 4 -10 43 -13 151 -13 114 0 143 3 134 12 -18 18 -15 27
8 21 11 -3 20 -12 20 -19 0 -11 24 -14 123 -13 101 2 113 3 67 10 -76 10 -112
20 -130 33 -8 7 -27 18 -42 26 -16 7 -28 19 -28 27 0 16 26 18 35 2 4 -6 13
-8 20 -5 15 5 58 -22 51 -33 -3 -3 16 -8 40 -9 25 -1 54 -8 65 -16 11 -7 28
-12 37 -10 59 11 72 15 72 24 0 6 -6 10 -14 10 -8 0 -27 5 -42 10 -19 8 -24
14 -17 21 8 8 19 6 37 -7 35 -22 59 -4 25 19 -19 14 -20 19 -9 32 10 12 10 15
-4 15 -10 0 -27 -5 -39 -11 -16 -9 -22 -9 -25 0 -5 15 -1088 16 -1097 1 -3 -5
-21 -10 -40 -10 -19 0 -37 5 -40 10 -10 17 -235 12 -269 -5 -36 -19 -65 -19
-72 0 -4 8 -19 15 -34 15 -16 0 -32 5 -35 10 -3 6 -11 10 -16 10 -6 0 -7 -5
-3 -12 5 -8 -4 -10 -34 -6 -26 4 -47 1 -60 -8 -17 -11 -30 -12 -71 -2 -44 10
-51 15 -57 41 -4 20 -2 33 7 39 10 7 5 8 -15 3 -20 -4 -34 -1 -47 11 -11 9
-19 13 -19 8z m-3650 -138 c0 -25 25 -37 55 -26 24 9 50 11 148 9 10 0 30 -5
45 -10 21 -8 23 -12 12 -19 -8 -6 -27 -10 -41 -10 -14 0 -29 -3 -33 -7 -4 -5
-29 -9 -54 -10 -26 -1 -70 -4 -99 -6 -29 -2 -52 -1 -51 2 3 27 -5 41 -22 41
-21 0 -24 8 -14 34 8 20 54 21 54 2z m760 -1 c47 -3 93 -22 87 -38 -2 -6 -17
-11 -32 -10 -16 1 -34 -2 -41 -8 -18 -15 -52 -2 -80 30 -31 35 -30 45 4 35 15
-4 43 -8 62 -9z m4321 -2 c16 -3 29 -11 29 -18 0 -9 -9 -11 -34 -5 -21 4 -39
3 -44 -2 -7 -7 -21 -6 -41 3 -37 16 -39 26 -8 32 21 4 33 3 98 -10z m79 -13
c0 -5 -4 -10 -10 -10 -5 0 -10 5 -10 10 0 6 5 10 10 10 6 0 10 -4 10 -10z m80
2 c0 -14 -11 -21 -26 -15 -21 8 -17 23 6 23 11 0 20 -4 20 -8z m-6450 -12 c8
-5 12 -12 8 -15 -10 -10 -49 5 -43 16 8 11 16 11 35 -1z m-53 -16 c-3 -3 -12
-4 -19 -1 -8 3 -5 6 6 6 11 1 17 -2 13 -5z m6538 -14 c-3 -5 -10 -10 -16 -10
-5 0 -9 5 -9 10 0 6 7 10 16 10 8 0 12 -4 9 -10z m-655 -18 c0 -14 -11 -21
-26 -15 -8 3 -11 9 -8 14 7 11 34 12 34 1z m-3075 -12 c-3 -5 -11 -10 -16 -10
-6 0 -7 5 -4 10 3 6 11 10 16 10 6 0 7 -4 4 -10z m1930 0 c17 -7 15 -9 -12 -9
-17 -1 -35 4 -38 9 -7 12 22 12 50 0z m1595 6 c0 -11 -19 -15 -25 -6 -3 5 1
10 9 10 9 0 16 -2 16 -4z m-6923 -12 c-3 -3 -12 -4 -19 -1 -8 3 -5 6 6 6 11 1
17 -2 13 -5z"/>
<path d="M18497 10713 c-7 -7 39 -33 57 -32 6 0 1 4 -11 9 -13 5 -23 14 -23
20 0 11 -13 13 -23 3z"/>
<path d="M4962 10700 c2 -8 20 -25 39 -38 37 -26 81 -24 109 3 13 13 12 15 -7
15 -12 0 -26 -8 -32 -17 -8 -16 -12 -16 -38 -3 -15 8 -39 23 -52 35 -17 14
-22 16 -19 5z"/>
<path d="M6530 10700 c8 -5 20 -10 25 -10 6 0 3 5 -5 10 -8 5 -19 10 -25 10
-5 0 -3 -5 5 -10z"/>
<path d="M10080 10706 c0 -2 8 -10 18 -17 15 -13 16 -12 3 4 -13 16 -21 21
-21 13z"/>
<path d="M10873 10695 c-19 -21 -16 -24 20 -18 21 3 46 -1 65 -11 17 -9 38
-13 48 -9 12 4 -5 13 -52 30 -38 12 -69 23 -69 23 0 -1 -6 -7 -12 -15z"/>
<path d="M11155 10694 c-7 -10 -27 -18 -50 -19 -22 -2 -41 -8 -43 -14 -5 -14
32 -14 61 1 12 6 28 14 36 18 17 7 27 30 14 30 -4 0 -13 -7 -18 -16z"/>
<path d="M14410 10706 c0 -2 13 -6 29 -8 17 -2 28 -1 25 4 -5 8 -54 12 -54 4z"/>
<path d="M15670 10701 c8 -6 28 -11 44 -11 39 0 31 6 -19 14 -29 5 -36 4 -25
-3z"/>
<path d="M5130 10691 c0 -14 -2 -14 180 -17 85 -1 173 -5 195 -8 l40 -6 -39
15 c-22 8 -51 15 -65 14 -14 -1 -66 -1 -116 -1 -49 0 -106 0 -125 -1 -19 0
-43 3 -52 7 -11 5 -18 4 -18 -3z"/>
<path d="M5775 10693 c11 -3 24 -9 30 -14 5 -5 16 -9 25 -9 9 1 6 6 -10 15
-14 8 -34 14 -45 13 l-20 0 20 -5z"/>
<path d="M6123 10688 c-2 -5 6 -8 19 -8 13 0 58 -2 102 -5 71 -4 127 7 112 22
-3 3 -11 1 -18 -4 -8 -6 -52 -7 -111 -4 -55 3 -101 3 -104 -1z"/>
<path d="M6675 10690 c-48 -5 -53 -7 -25 -10 50 -5 104 0 115 11 10 10 7 10
-90 -1z"/>
<path d="M8587 10680 c3 -11 9 -20 14 -20 11 0 11 3 3 24 -9 23 -23 20 -17 -4z"/>
<path d="M10218 10688 c15 -18 58 -29 81 -20 11 4 4 9 -19 13 -19 3 -44 10
-55 15 -17 7 -18 6 -7 -8z"/>
<path d="M14878 10693 c7 -3 16 -2 19 1 4 3 -2 6 -13 5 -11 0 -14 -3 -6 -6z"/>
<path d="M15047 10681 c4 -15 8 -17 28 -7 28 13 23 26 -10 26 -18 0 -22 -4
-18 -19z"/>
<path d="M15510 10690 c-15 -4 6 -7 52 -6 42 0 79 4 83 8 9 9 -102 7 -135 -2z"/>
<path d="M15793 10693 c9 -14 47 -24 47 -12 0 5 -4 9 -9 9 -5 0 -17 3 -27 7
-11 4 -15 3 -11 -4z"/>
<path d="M730 10670 c0 -19 3 -21 12 -12 9 9 9 15 0 24 -9 9 -12 7 -12 -12z"/>
<path d="M5635 10679 c-16 -4 -41 -6 -55 -4 -24 5 -24 5 3 -6 21 -8 37 -7 70
4 45 16 32 21 -18 6z"/>
<path d="M5720 10679 c0 -5 5 -7 10 -4 6 3 10 8 10 11 0 2 -4 4 -10 4 -5 0
-10 -5 -10 -11z"/>
<path d="M5860 10680 c0 -5 5 -10 10 -10 6 0 10 5 10 10 0 6 -4 10 -10 10 -5
0 -10 -4 -10 -10z"/>
<path d="M5905 10680 c-8 -13 25 -13 45 0 12 8 9 10 -12 10 -15 0 -30 -4 -33
-10z"/>
<path d="M6055 10680 c-8 -13 5 -13 25 0 13 8 13 10 -2 10 -9 0 -20 -4 -23
-10z"/>
<path d="M7250 10680 c0 -5 5 -10 11 -10 5 0 7 5 4 10 -3 6 -8 10 -11 10 -2 0
-4 -4 -4 -10z"/>
<path d="M8733 10674 c-3 -8 -1 -20 6 -27 13 -13 16 -10 25 21 6 16 3 22 -9
22 -8 0 -18 -7 -22 -16z"/>
<path d="M15249 10679 c-22 -13 -2 -22 28 -12 25 9 26 10 6 15 -11 3 -27 2
-34 -3z"/>
<path d="M15340 10680 c-35 -7 -35 -7 -5 -9 17 0 37 4 45 9 17 11 11 11 -40 0z"/>
<path d="M15400 10679 c0 -5 19 -9 42 -9 23 0 39 3 36 6 -10 9 -78 12 -78 3z"/>
<path d="M5985 10670 c3 -5 16 -10 28 -9 21 0 21 1 2 9 -28 12 -37 12 -30 0z"/>
<path d="M7345 10675 c23 -8 125 -11 113 -4 -7 5 -38 8 -68 8 -30 0 -50 -2
-45 -4z"/>
<path d="M8480 10671 c0 -5 7 -12 16 -15 24 -9 28 -7 14 9 -14 17 -30 20 -30
6z"/>
<path d="M10796 10672 c-3 -6 7 -12 22 -15 25 -5 41 -2 31 7 -12 10 -48 16
-53 8z"/>
<path d="M15116 10659 c-11 -10 -14 -19 -8 -19 6 0 13 4 17 10 4 6 15 6 32 -1
24 -9 25 -8 12 8 -12 15 -12 16 2 11 9 -3 22 -2 30 3 9 6 1 9 -26 8 -26 0 -47
-7 -59 -20z"/>
<path d="M7676 10655 c7 -17 22 -19 42 -6 11 7 10 10 -3 15 -29 11 -45 7 -39
-9z"/>
<path d="M10048 10653 c7 -3 16 -2 19 1 4 3 -2 6 -13 5 -11 0 -14 -3 -6 -6z"/>
<path d="M10505 10650 c56 -13 209 -21 171 -10 -16 5 -70 11 -120 14 -67 4
-81 3 -51 -4z"/>
<path d="M11705 10650 c3 -5 10 -10 16 -10 5 0 9 5 9 10 0 6 -7 10 -16 10 -8
0 -12 -4 -9 -10z"/>
<path d="M13752 10649 c2 -6 8 -10 13 -10 5 0 11 4 13 10 2 6 -4 11 -13 11 -9
0 -15 -5 -13 -11z"/>
<path d="M14185 10650 c-19 -8 -19 -9 3 -9 12 -1 22 4 22 9 0 6 -1 10 -2 9 -2
0 -12 -4 -23 -9z"/>
<path d="M7860 10631 c8 -6 22 -11 31 -11 8 0 24 -7 35 -15 19 -14 18 -15 -6
-35 -26 -21 -85 -27 -95 -10 -3 6 -17 10 -30 10 -13 0 -27 5 -30 10 -4 6 -16
8 -26 5 -11 -4 -26 -2 -34 5 -9 7 -15 8 -20 0 -8 -13 -52 -13 -61 1 -3 6 -15
9 -25 6 -12 -3 -25 3 -34 16 -13 19 -18 20 -67 10 -43 -9 -688 -10 -758 -2
-36 5 -1004 -3 -992 -8 6 -2 12 -9 12 -15 0 -12 -79 0 -97 14 -9 7 -18 6 -30
-3 -13 -11 -17 -11 -20 -1 -4 9 -45 12 -166 11 -124 0 -157 -3 -139 -11 34
-17 25 -36 -13 -28 -5 1 -21 3 -35 4 -47 5 -90 18 -84 27 3 5 -54 9 -127 9
-96 0 -130 -3 -122 -11 6 -6 27 -12 48 -14 20 -2 40 -6 43 -9 13 -13 -12 -19
-88 -19 -44 0 -83 -4 -86 -8 -3 -5 -13 -5 -22 0 -26 13 -122 1 -122 -15 0 -8
-4 -14 -10 -14 -5 0 -10 5 -10 10 0 6 -7 10 -15 10 -18 0 -20 -21 -3 -38 9 -9
6 -12 -16 -12 -20 0 -29 6 -33 20 -5 17 -11 19 -42 14 -20 -4 -42 -12 -50 -18
-11 -8 -15 -8 -18 1 -3 8 -11 5 -23 -7 -24 -24 -53 -16 -45 11 5 15 3 18 -12
13 -10 -4 -24 -14 -31 -23 -12 -15 -15 -14 -28 3 -11 16 -17 17 -26 8 -7 -7
-21 -12 -32 -12 -14 0 -8 -6 19 -20 30 -15 59 -20 123 -20 46 0 92 5 103 11
15 7 24 7 34 -1 13 -11 31 -10 102 5 23 5 30 11 26 22 -5 12 -1 14 16 8 13 -4
28 -2 36 5 12 10 15 9 15 -3 0 -8 -6 -18 -12 -20 -7 -3 -3 -6 8 -6 12 -1 27 6
34 14 16 20 44 20 37 0 -8 -18 13 -32 23 -15 4 7 13 9 19 6 6 -4 9 -12 6 -17
-4 -5 28 -9 77 -9 1083 -3 1994 2 1996 10 2 5 10 10 18 10 9 0 12 -4 9 -10 -4
-6 8 -10 30 -10 22 0 34 4 30 10 -4 6 5 10 20 10 15 0 24 -4 20 -10 -3 -5 0
-10 7 -11 45 -4 412 2 416 6 3 3 0 5 -8 5 -10 0 -10 3 0 15 8 10 17 12 24 6
11 -9 90 -6 107 4 5 4 18 3 29 0 41 -13 18 -24 -57 -28 -43 -1 -1 -3 92 -3 94
0 141 1 107 3 -48 3 -62 7 -59 17 3 8 0 19 -6 25 -22 22 0 20 36 -4 40 -27 77
-33 77 -11 0 12 6 12 38 0 20 -7 47 -13 59 -14 12 0 23 -5 25 -11 2 -7 16 -1
32 15 24 22 38 26 87 26 44 0 59 -4 59 -14 0 -22 37 -26 56 -5 18 20 34 17 34
-6 0 -7 -8 -16 -17 -18 -12 -3 -9 -5 8 -6 15 0 29 5 32 13 7 17 149 12 185 -6
14 -8 26 -8 30 -3 8 11 57 10 110 -1 21 -4 32 -2 32 5 0 6 14 11 30 11 17 0
30 -4 30 -10 0 -5 9 -10 20 -10 11 0 20 5 20 10 0 6 8 10 18 10 14 0 15 -2 2
-10 -12 -8 -9 -10 12 -10 14 0 29 6 31 13 4 9 8 8 17 -3 9 -11 13 -12 17 -2 2
6 16 12 29 12 14 0 23 -4 19 -10 -3 -5 25 -8 73 -7 78 1 78 1 68 24 -8 16 -20
23 -38 23 -16 0 -28 4 -28 9 0 5 -13 14 -30 21 -29 12 -41 30 -20 30 25 0 6
20 -27 29 -52 15 -55 14 -48 -9 4 -11 2 -20 -4 -20 -6 0 -11 -4 -11 -10 0 -5
8 -10 17 -10 9 0 13 -3 10 -7 -12 -12 -468 -9 -475 3 -7 11 -113 37 -147 35
-11 0 -31 3 -45 8 -14 5 -37 12 -52 15 -25 6 -28 3 -28 -19 0 -29 -24 -34 -39
-8 -8 15 -11 15 -27 3 -16 -14 -17 -13 -11 3 8 22 -16 32 -103 41 -46 5 -61 4
-50 -3z m-1790 -51 c0 -23 -22 -26 -39 -6 -9 11 -9 15 1 19 26 11 38 7 38 -13z
m-646 4 c25 -9 19 -24 -9 -24 -16 0 -25 6 -25 15 0 16 9 19 34 9z m-183 -30
c12 -14 11 -16 -5 -13 -11 2 -21 10 -24 17 -5 17 13 15 29 -4z m562 -11 c4 -2
7 -13 7 -24 0 -23 -22 -25 -40 -4 -7 8 -23 15 -35 15 -12 0 -29 7 -36 16 -12
15 -9 16 41 9 30 -4 58 -9 63 -12z m-158 -5 c24 2 95 -28 95 -40 0 -12 -58
-10 -81 5 -17 10 -23 10 -26 0 -6 -15 -49 -17 -58 -3 -3 6 -17 10 -31 10 -13
0 -24 5 -24 10 0 6 9 10 20 10 11 0 20 5 20 11 0 7 11 8 33 3 17 -4 41 -7 52
-6z m-705 -8 c0 -5 -15 -10 -34 -10 -19 0 -38 5 -41 10 -4 6 10 10 34 10 23 0
41 -4 41 -10z m3984 -6 c21 -8 21 -33 0 -41 -18 -7 -35 14 -27 34 6 15 6 15
27 7z m-1190 -29 c3 -9 0 -15 -9 -15 -16 0 -27 14 -18 24 10 10 21 7 27 -9z
m873 -11 c-3 -3 -12 -4 -19 -1 -8 3 -5 6 6 6 11 1 17 -2 13 -5z"/>
<path d="M9315 10629 c-6 -8 -27 -10 -70 -6 -41 4 -66 2 -74 -6 -9 -9 -16 -9
-31 1 -27 17 -143 16 -137 0 2 -8 16 -12 33 -10 16 2 42 -4 58 -12 23 -11 34
-12 54 -3 20 9 26 9 30 -1 2 -6 15 -12 28 -12 28 0 31 -15 7 -29 -14 -8 -6
-10 35 -11 43 0 52 3 52 18 0 9 7 30 15 46 15 28 14 49 0 25z"/>
<path d="M8525 10619 c-8 -12 21 -23 41 -15 8 3 28 -1 44 -9 32 -17 100 -20
100 -6 0 15 -22 25 -60 27 -19 1 -54 5 -77 8 -24 2 -45 0 -48 -5z"/>
<path d="M720 10610 c0 -5 5 -10 10 -10 6 0 10 5 10 10 0 6 -4 10 -10 10 -5 0
-10 -4 -10 -10z"/>
<path d="M1033 10613 c9 -2 25 -2 35 0 9 3 1 5 -18 5 -19 0 -27 -2 -17 -5z"/>
<path d="M1370 10611 c0 -14 26 -20 63 -14 42 6 53 -7 29 -37 l-18 -23 -42 28
c-28 18 -47 25 -59 20 -15 -6 -14 -9 12 -20 l29 -13 -37 -10 c-25 -7 -49 -7
-73 0 -20 5 -42 7 -50 4 -24 -9 -45 5 -39 25 4 11 2 19 -3 19 -14 0 -33 -26
-30 -41 5 -21 -81 -32 -109 -14 -19 13 -22 13 -17 1 3 -8 -3 -19 -15 -26 -25
-13 -45 -4 -37 16 10 27 -11 23 -33 -6 -19 -26 -28 -30 -71 -30 -27 0 -52 -4
-55 -10 -4 -7 250 -10 754 -10 683 0 805 4 749 22 -8 3 -3 10 11 17 22 13 23
12 17 -12 l-6 -25 243 -6 c308 -8 276 -8 462 -1 161 6 196 15 163 39 -29 22
-21 27 40 25 31 -1 64 0 72 2 8 2 15 -3 15 -11 0 -10 -11 -15 -35 -16 -52 -2
-54 -3 -40 -19 11 -13 81 -15 534 -14 290 1 492 5 456 9 -36 4 -67 6 -69 4 -2
-2 -11 4 -20 13 -12 12 -13 17 -3 21 10 3 10 7 1 18 -8 10 -15 11 -24 4 -6 -5
-120 -12 -257 -16 -271 -6 -267 -6 -287 -18 -9 -6 -18 -3 -27 9 -9 13 -17 15
-26 8 -20 -15 -91 -15 -112 0 -17 12 -7 15 85 22 57 5 158 9 224 10 160 3 255
14 255 30 0 14 22 25 51 25 24 0 24 -9 2 -26 -17 -12 -16 -13 5 -14 13 0 31 7
39 16 13 12 17 13 24 2 11 -18 189 -21 189 -3 0 9 13 11 48 7 42 -5 46 -4 34
11 -12 15 -61 16 -463 17 -324 0 -449 -3 -449 -11 0 -8 -12 -9 -37 -4 -21 5
-47 7 -58 7 -19 -2 -107 -1 -185 0 -19 1 -60 1 -90 0 -30 0 -203 2 -385 4
-235 4 -335 2 -351 -6 -30 -17 -90 -18 -87 -2 2 6 -4 12 -12 12 -8 0 -14 -6
-12 -12 1 -7 -9 -14 -22 -16 -17 -3 -22 0 -18 11 7 18 -73 23 -85 5 -6 -10
-11 -11 -28 0 -14 9 -89 12 -280 12 l-260 0 6 -24 c7 -30 -7 -39 -40 -26 -28
10 -35 30 -11 30 8 0 15 5 15 10 0 6 -33 10 -80 10 -44 0 -80 -4 -80 -9z m645
-10 c-15 -13 -93 -22 -100 -12 -7 12 17 18 70 20 23 1 35 -3 30 -8z m-235 -17
c0 -2 -16 -4 -36 -4 -19 0 -33 4 -30 8 5 8 66 4 66 -4z m-105 -10 c-11 -8 -26
-12 -33 -9 -8 3 -23 5 -35 6 -20 1 -20 2 3 9 14 4 39 8 55 9 29 0 29 0 10 -15z
m1165 -54 c31 -17 99 -20 114 -5 17 17 187 19 198 2 12 -18 9 -27 -7 -27 -8 0
-15 4 -15 9 0 5 -12 3 -28 -4 -20 -10 -38 -12 -67 -5 -25 6 -44 5 -52 -1 -6
-6 -27 -10 -45 -8 -54 3 -80 0 -73 -11 3 -5 -3 -10 -15 -10 -12 0 -18 4 -15
10 6 9 -15 16 -63 22 -34 4 -28 22 10 29 18 4 34 7 36 8 2 0 12 -4 22 -9z"/>
<path d="M4410 10610 c0 -5 5 -10 10 -10 6 0 10 5 10 10 0 6 -4 10 -10 10 -5
0 -10 -4 -10 -10z"/>
<path d="M4455 10607 c4 -8 26 -12 73 -11 89 2 92 2 92 14 0 6 -35 10 -85 10
-64 0 -83 -3 -80 -13z"/>
<path d="M4738 10613 c7 -3 16 -2 19 1 4 3 -2 6 -13 5 -11 0 -14 -3 -6 -6z"/>
<path d="M4888 10613 c7 -3 16 -2 19 1 4 3 -2 6 -13 5 -11 0 -14 -3 -6 -6z"/>
<path d="M12444 10609 c-4 -7 -21 -9 -43 -5 -47 7 -75 -9 -31 -18 18 -3 47 -6
66 -6 18 0 35 -4 39 -9 3 -6 14 -9 24 -8 19 1 19 2 0 29 -21 29 -43 36 -55 17z"/>
<path d="M12880 10605 c0 -8 7 -15 16 -15 8 0 13 4 9 9 -3 5 3 12 12 14 11 3
8 5 -9 6 -19 1 -28 -4 -28 -14z"/>
<path d="M16943 10605 c2 -5 14 -12 28 -14 13 -1 27 -8 32 -15 4 -7 9 -3 13
12 8 28 40 29 49 2 3 -11 11 -20 17 -20 6 0 20 -7 30 -17 10 -9 21 -13 25 -9
5 4 0 12 -10 17 -9 6 -17 16 -17 24 0 8 -6 17 -12 22 -20 12 -159 11 -155 -2z"/>
<path d="M17388 10613 c6 -2 18 -2 25 0 6 3 1 5 -13 5 -14 0 -19 -2 -12 -5z"/>
<path d="M17535 10610 c3 -5 10 -10 16 -10 5 0 9 5 9 10 0 6 -7 10 -16 10 -8
0 -12 -4 -9 -10z"/>
<path d="M17650 10601 c-26 -7 -34 -31 -12 -38 6 -3 12 0 12 6 0 14 40 14 76
1 28 -11 63 5 47 21 -12 11 -95 19 -123 10z"/>
<path d="M1286 10592 c-4 -4 -19 -7 -32 -7 -40 0 -27 -19 16 -21 28 -1 40 2
40 11 0 17 -15 27 -24 17z"/>
<path d="M4808 10593 c6 -2 18 -2 25 0 6 3 1 5 -13 5 -14 0 -19 -2 -12 -5z"/>
<path d="M8950 10595 c0 -2 10 -15 23 -28 24 -26 37 -30 101 -28 l40 1 -22 20
c-12 11 -25 20 -31 20 -5 0 -11 3 -14 8 -2 4 -2 1 0 -7 2 -8 -2 -18 -9 -23
-19 -12 -28 -10 -28 6 0 8 -13 19 -30 25 -16 5 -30 8 -30 6z"/>
<path d="M17425 10590 c3 -5 13 -10 21 -10 8 0 14 5 14 10 0 6 -9 10 -21 10
-11 0 -17 -4 -14 -10z"/>
<path d="M16840 10570 c0 -5 5 -10 10 -10 6 0 10 5 10 10 0 6 -4 10 -10 10 -5
0 -10 -4 -10 -10z"/>
<path d="M702 10558 c-14 -14 -16 -42 -3 -34 7 5 23 46 17 46 -1 0 -7 -5 -14
-12z"/>
<path d="M17370 10560 c0 -5 5 -10 10 -10 6 0 10 5 10 10 0 6 -4 10 -10 10 -5
0 -10 -4 -10 -10z"/>
<path d="M17555 10548 c-8 -13 -21 -23 -27 -23 -6 0 -13 -12 -15 -27 -3 -20 1
-28 12 -28 8 0 15 7 15 15 0 10 10 15 29 15 21 0 30 6 34 22 6 21 -7 48 -24
48 -4 0 -15 -10 -24 -22z"/>
<path d="M16770 10550 c0 -5 7 -10 15 -10 8 0 15 5 15 10 0 6 -7 10 -15 10 -8
0 -15 -4 -15 -10z"/>
<path d="M4210 10521 c0 -11 39 -26 47 -17 8 8 3 12 -24 20 -13 4 -23 3 -23
-3z"/>
<path d="M17319 10511 c14 -13 37 -21 57 -21 45 0 43 7 -7 20 -22 6 -48 13
-57 16 -12 4 -9 -1 7 -15z"/>
<path d="M9040 10510 c-9 -6 -10 -10 -3 -10 6 0 15 5 18 10 8 12 4 12 -15 0z"/>
<path d="M10865 10510 c-3 -5 -1 -10 4 -10 6 0 11 5 11 10 0 6 -2 10 -4 10 -3
0 -8 -4 -11 -10z"/>
<path d="M19365 10500 c-10 -11 -13 -20 -8 -20 13 0 38 29 31 35 -3 3 -13 -4
-23 -15z"/>
<path d="M16740 10480 c-12 -8 -9 -10 13 -10 16 0 26 4 22 10 -8 12 -16 12
-35 0z"/>
<path d="M8103 10473 c9 -2 23 -2 30 0 6 3 -1 5 -18 5 -16 0 -22 -2 -12 -5z"/>
<path d="M12288 10473 c7 -3 16 -2 19 1 4 3 -2 6 -13 5 -11 0 -14 -3 -6 -6z"/>
<path d="M16678 10473 c6 -2 18 -2 25 0 6 3 1 5 -13 5 -14 0 -19 -2 -12 -5z"/>
<path d="M5093 10453 c9 -2 23 -2 30 0 6 3 -1 5 -18 5 -16 0 -22 -2 -12 -5z"/>
<path d="M13010 10449 c0 -5 5 -7 10 -4 6 3 10 8 10 11 0 2 -4 4 -10 4 -5 0
-10 -5 -10 -11z"/>
<path d="M13180 10450 c8 -5 24 -10 34 -10 26 0 18 6 -19 14 -22 5 -26 4 -15
-4z"/>
<path d="M15405 10450 c3 -5 8 -10 11 -10 2 0 4 5 4 10 0 6 -5 10 -11 10 -5 0
-7 -4 -4 -10z"/>
<path d="M3195 10440 c-3 -5 -1 -10 4 -10 6 0 11 5 11 10 0 6 -2 10 -4 10 -3
0 -8 -4 -11 -10z"/>
<path d="M4553 10439 c11 -7 23 -7 35 0 14 9 11 10 -18 10 -29 0 -32 -1 -17
-10z"/>
<path d="M4680 10435 c7 -8 20 -15 30 -15 9 0 17 7 17 15 0 10 -10 15 -30 15
-25 0 -28 -2 -17 -15z"/>
<path d="M4758 10443 c6 -2 18 -2 25 0 6 3 1 5 -13 5 -14 0 -19 -2 -12 -5z"/>
<path d="M4800 10440 c0 -5 7 -10 15 -10 8 0 15 5 15 10 0 6 -7 10 -15 10 -8
0 -15 -4 -15 -10z"/>
<path d="M4868 10443 c7 -3 16 -2 19 1 4 3 -2 6 -13 5 -11 0 -14 -3 -6 -6z"/>
<path d="M8707 10431 c-3 -14 -1 -18 9 -14 16 6 18 19 5 27 -5 3 -11 -3 -14
-13z"/>
<path d="M9938 10443 c6 -2 18 -2 25 0 6 3 1 5 -13 5 -14 0 -19 -2 -12 -5z"/>
<path d="M10144 10435 c8 -8 18 -15 22 -15 3 0 1 7 -6 15 -7 8 -17 15 -22 15
-5 0 -3 -7 6 -15z"/>
<path d="M11350 10440 c0 -5 7 -10 15 -10 8 0 15 5 15 10 0 6 -7 10 -15 10 -8
0 -15 -4 -15 -10z"/>
<path d="M11563 10430 c1 -11 5 -20 9 -20 4 0 8 9 8 20 0 11 -4 20 -9 20 -6 0
-9 -9 -8 -20z"/>
<path d="M13256 10441 c-11 -4 2 -7 35 -8 39 0 47 2 29 8 -32 9 -41 9 -64 0z"/>
<path d="M13463 10443 c9 -2 23 -2 30 0 6 3 -1 5 -18 5 -16 0 -22 -2 -12 -5z"/>
<path d="M14014 10442 c-7 -4 13 -8 43 -8 35 -1 50 2 42 7 -17 11 -70 11 -85
1z"/>
<path d="M14518 10443 c7 -3 16 -2 19 1 4 3 -2 6 -13 5 -11 0 -14 -3 -6 -6z"/>
<path d="M3220 10436 c0 -2 9 -6 20 -9 11 -3 18 -1 14 4 -5 9 -34 13 -34 5z"/>
<path d="M4618 10433 c7 -3 16 -2 19 1 4 3 -2 6 -13 5 -11 0 -14 -3 -6 -6z"/>
<path d="M10204 10424 c20 -19 46 -28 46 -14 0 4 -8 10 -17 14 -10 3 -25 9
-33 13 -9 4 -8 -1 4 -13z"/>
<path d="M10898 10433 c6 -2 18 -2 25 0 6 3 1 5 -13 5 -14 0 -19 -2 -12 -5z"/>
<path d="M10965 10431 c-19 -4 -26 -9 -18 -14 15 -9 63 2 63 14 0 10 -1 10
-45 0z"/>
<path d="M11068 10433 c7 -3 16 -2 19 1 4 3 -2 6 -13 5 -11 0 -14 -3 -6 -6z"/>
<path d="M11241 10431 c-9 -6 -10 -11 -2 -15 6 -4 11 -3 11 3 0 5 19 12 43 14
l42 4 -40 1 c-22 1 -46 -2 -54 -7z"/>
<path d="M11656 10431 c-3 -5 1 -14 9 -21 10 -9 15 -9 15 -1 0 6 8 11 18 11
14 0 15 2 2 10 -19 12 -37 13 -44 1z"/>
<path d="M11720 10433 c0 -5 35 -9 77 -11 42 -1 74 1 70 5 -10 9 -147 15 -147
6z"/>
<path d="M12080 10430 c0 -5 5 -10 11 -10 5 0 7 5 4 10 -3 6 -8 10 -11 10 -2
0 -4 -4 -4 -10z"/>
<path d="M13415 10430 c3 -5 8 -10 11 -10 2 0 4 5 4 10 0 6 -5 10 -11 10 -5 0
-7 -4 -4 -10z"/>
<path d="M13525 10429 c-4 -6 -5 -13 -2 -16 7 -7 27 6 27 18 0 12 -17 12 -25
-2z"/>
<path d="M13780 10430 c8 -5 26 -9 40 -9 l25 1 -25 8 c-14 4 -32 8 -40 9 -13
1 -13 0 0 -9z"/>
<path d="M13943 10429 c14 -8 22 -8 30 0 8 8 3 11 -18 11 -26 -1 -28 -2 -12
-11z"/>
<path d="M4294 10423 c4 -5 25 -8 46 -8 21 0 36 3 33 8 -2 4 -23 7 -45 7 -23
0 -38 -3 -34 -7z"/>
<path d="M8538 10423 c7 -3 16 -2 19 1 4 3 -2 6 -13 5 -11 0 -14 -3 -6 -6z"/>
<path d="M9815 10420 c4 -6 11 -8 16 -5 14 9 11 15 -7 15 -8 0 -12 -5 -9 -10z"/>
<path d="M10818 10423 c7 -3 16 -2 19 1 4 3 -2 6 -13 5 -11 0 -14 -3 -6 -6z"/>
<path d="M11898 10423 c7 -3 16 -2 19 1 4 3 -2 6 -13 5 -11 0 -14 -3 -6 -6z"/>
<path d="M11980 10414 c0 -8 5 -12 10 -9 6 4 8 11 5 16 -9 14 -15 11 -15 -7z"/>
<path d="M13135 10420 c-3 -5 -1 -10 4 -10 6 0 11 5 11 10 0 6 -2 10 -4 10 -3
0 -8 -4 -11 -10z"/>
<path d="M13870 10426 c0 -2 9 -6 20 -9 11 -3 18 -1 14 4 -5 9 -34 13 -34 5z"/>
<path d="M15650 10421 l-45 -7 67 -8 c44 -5 73 -4 85 3 15 10 14 10 -8 5 -15
-3 -30 -1 -33 5 -4 6 -10 10 -14 9 -4 0 -27 -4 -52 -7z"/>
<path d="M9476 10405 c4 -8 7 -15 9 -15 2 0 5 7 9 15 3 9 0 15 -9 15 -9 0 -12
-6 -9 -15z"/>
<path d="M12033 10413 c9 -2 23 -2 30 0 6 3 -1 5 -18 5 -16 0 -22 -2 -12 -5z"/>
<path d="M13675 10410 c3 -5 8 -10 11 -10 2 0 4 5 4 10 0 6 -5 10 -11 10 -5 0
-7 -4 -4 -10z"/>
<path d="M15486 10407 c3 -10 9 -15 12 -12 3 3 0 11 -7 18 -10 9 -11 8 -5 -6z"/>
<path d="M16470 10416 c0 -2 14 -9 30 -15 22 -7 30 -7 30 2 0 7 -14 13 -30 14
-17 1 -30 1 -30 -1z"/>
<path d="M1255 10400 l-30 -8 27 -1 c15 0 30 4 33 9 3 6 5 9 3 9 -2 -1 -16 -5
-33 -9z"/>
<path d="M3851 10406 c9 -9 147 -13 160 -5 9 5 -20 9 -75 9 -49 0 -87 -2 -85
-4z"/>
<path d="M9260 10400 c0 -5 4 -10 9 -10 6 0 13 5 16 10 3 6 -1 10 -9 10 -9 0
-16 -4 -16 -10z"/>
<path d="M11335 10400 c3 -5 11 -10 16 -10 6 0 7 5 4 10 -3 6 -11 10 -16 10
-6 0 -7 -4 -4 -10z"/>
<path d="M12180 10400 c0 -5 7 -10 16 -10 8 0 12 5 9 10 -3 6 -10 10 -16 10
-5 0 -9 -4 -9 -10z"/>
<path d="M15550 10400 c-13 -8 -12 -10 3 -10 9 0 17 5 17 10 0 12 -1 12 -20 0z"/>
<path d="M1145 10390 c-3 -5 -18 -7 -33 -4 -20 4 -30 0 -40 -15 -7 -12 -8 -21
-3 -21 6 0 13 5 16 10 3 6 18 10 33 11 15 0 43 7 62 14 l35 13 -32 1 c-17 1
-35 -3 -38 -9z"/>
<path d="M1570 10396 c0 -2 7 -7 16 -10 8 -3 12 -2 9 4 -6 10 -25 14 -25 6z"/>
<path d="M4235 10390 c-3 -5 1 -10 9 -10 8 0 18 5 21 10 3 6 -1 10 -9 10 -8 0
-18 -4 -21 -10z"/>
<path d="M16695 10390 c3 -5 16 -10 28 -9 21 0 21 1 2 9 -28 12 -37 12 -30 0z"/>
<path d="M9308 10383 c7 -3 16 -2 19 1 4 3 -2 6 -13 5 -11 0 -14 -3 -6 -6z"/>
<path d="M10010 10380 c0 -5 5 -10 11 -10 5 0 7 5 4 10 -3 6 -8 10 -11 10 -2
0 -4 -4 -4 -10z"/>
<path d="M13923 10380 c2 -8 12 -16 23 -17 13 -2 15 -1 4 4 -8 3 -19 11 -23
17 -6 7 -7 6 -4 -4z"/>
<path d="M14442 10377 c-8 -10 -2 -13 30 -13 40 -1 40 -1 17 12 -30 17 -34 17
-47 1z"/>
<path d="M3752 10373 c-18 -2 -30 -9 -27 -14 7 -10 54 -2 70 12 5 6 5 8 0 7
-6 0 -25 -3 -43 -5z"/>
<path d="M14280 10369 c0 -5 5 -7 10 -4 6 3 10 8 10 11 0 2 -4 4 -10 4 -5 0
-10 -5 -10 -11z"/>
<path d="M14777 10361 c-3 -12 1 -22 10 -25 23 -9 29 -7 13 5 -11 8 -12 12 -2
16 6 2 10 9 6 14 -9 15 -21 10 -27 -10z"/>
<path d="M14335 10360 c3 -5 11 -10 16 -10 6 0 7 5 4 10 -3 6 -11 10 -16 10
-6 0 -7 -4 -4 -10z"/>
<path d="M14561 10361 c-20 -13 1 -21 44 -16 42 6 60 15 29 15 -10 0 -28 3
-39 5 -11 3 -26 1 -34 -4z"/>
<path d="M15475 10360 c-10 -16 18 -37 40 -32 18 5 18 6 -5 12 -14 4 -24 12
-22 18 3 15 -5 16 -13 2z"/>
<path d="M14870 10350 c0 -5 6 -10 14 -10 8 0 18 5 21 10 3 6 -3 10 -14 10
-12 0 -21 -4 -21 -10z"/>
<path d="M15108 10353 c7 -3 16 -2 19 1 4 3 -2 6 -13 5 -11 0 -14 -3 -6 -6z"/>
<path d="M852 10331 c13 -21 48 -35 48 -20 0 5 -5 9 -11 9 -5 0 -7 5 -4 11 4
6 13 8 19 6 7 -3 28 -2 47 3 28 7 21 8 -39 9 -69 1 -72 0 -60 -18z"/>
<path d="M15065 10320 c-3 -5 1 -10 10 -10 9 0 13 5 10 10 -3 6 -8 10 -10 10
-2 0 -7 -4 -10 -10z"/>
<path d="M15360 10317 c0 -7 9 -13 20 -14 18 -2 18 0 6 13 -18 17 -26 18 -26
1z"/>
<path d="M2430 10310 c0 -5 4 -10 9 -10 6 0 13 5 16 10 3 6 -1 10 -9 10 -9 0
-16 -4 -16 -10z"/>
<path d="M15185 10310 c3 -5 11 -10 16 -10 6 0 7 5 4 10 -3 6 -11 10 -16 10
-6 0 -7 -4 -4 -10z"/>
<path d="M15875 10310 c-3 -5 -2 -10 4 -10 5 0 13 5 16 10 3 6 2 10 -4 10 -5
0 -13 -4 -16 -10z"/>
<path d="M2608 10293 c7 -3 16 -2 19 1 4 3 -2 6 -13 5 -11 0 -14 -3 -6 -6z"/>
<path d="M16328 10278 c9 -9 15 -9 24 0 9 9 7 12 -12 12 -19 0 -21 -3 -12 -12z"/>
<path d="M918 10273 c6 -2 18 -2 25 0 6 3 1 5 -13 5 -14 0 -19 -2 -12 -5z"/>
<path d="M1433 10263 c9 -2 23 -2 30 0 6 3 -1 5 -18 5 -16 0 -22 -2 -12 -5z"/>
<path d="M1575 10260 c3 -5 8 -10 11 -10 2 0 4 5 4 10 0 6 -5 10 -11 10 -5 0
-7 -4 -4 -10z"/>
<path d="M2345 10260 c3 -5 8 -10 11 -10 2 0 4 5 4 10 0 6 -5 10 -11 10 -5 0
-7 -4 -4 -10z"/>
<path d="M2730 10266 c0 -2 7 -7 16 -10 8 -3 12 -2 9 4 -6 10 -25 14 -25 6z"/>
<path d="M12930 10260 c0 -5 5 -10 10 -10 6 0 10 5 10 10 0 6 -4 10 -10 10 -5
0 -10 -4 -10 -10z"/>
<path d="M1168 10253 c12 -2 30 -2 40 0 9 3 -1 5 -23 4 -22 0 -30 -2 -17 -4z"/>
<path d="M1048 10243 c12 -2 30 -2 40 0 9 3 -1 5 -23 4 -22 0 -30 -2 -17 -4z"/>
<path d="M1323 10243 c9 -2 23 -2 30 0 6 3 -1 5 -18 5 -16 0 -22 -2 -12 -5z"/>
<path d="M2770 10240 c0 -5 7 -7 15 -4 8 4 15 8 15 10 0 2 -7 4 -15 4 -8 0
-15 -4 -15 -10z"/>
<path d="M1913 10233 c9 -2 23 -2 30 0 6 3 -1 5 -18 5 -16 0 -22 -2 -12 -5z"/>
<path d="M13550 10230 c0 -5 5 -10 11 -10 5 0 7 5 4 10 -3 6 -8 10 -11 10 -2
0 -4 -4 -4 -10z"/>
<path d="M17647 10123 c-4 -3 -7 -13 -7 -22 1 -13 3 -13 11 2 11 19 8 33 -4
20z"/>
<path d="M14738 10108 c9 -9 15 -9 24 0 9 9 7 12 -12 12 -19 0 -21 -3 -12 -12z"/>
</g>
</svg>
